<svg xmlns="http://www.w3.org/2000/svg" width="554.117" height="387.897" viewBox="0 0 519.484 363.654"><g style="display:inline"><path d="M436.368 140.236c-1.748-1.135-3.2-1.434-4.043-.42-2.106 2.67-3.475 9.083-4.023 13.664-.547 5.616-.61 17.504 4.802 26.088.295.458.61.916.884 1.373.275.44.548.896.801 1.315 2.78 4.6 2.78 7.827 2.295 10.874-.568 3.624.632 8.862 2.928 13.92 2.168 4.64 5.454 9.282 8.971 11.412.885.538.359.259 1.2.617 1.286.518 3.118 1.294 4.402 2.529 2.275 2.11 3.118 6.532 3.476 8.842 1.642 10.296 11.31 18.66 19.039 19.178 2.422.1 6.36.32 8.93 2.012 1.916 1.274 2.99 3.504 3.663 5.516a16.23 16.23 0 0 0 4.57 6.87c5.56 4.8 13.416 4.78 18.998 3.087 2.843-.975 6.929-2.449 10.13-1.95 2.042.258 3.602 1.333 4.907 2.787 5.876 6.373 15.837 3.246 22.387-1.832 2.001-1.593 7.013-5.696 9.646-5.615.864-.02 1.474.397 1.938.916.99.954 2.274 1.572 3.79 1.79 4.613.54 9.836-2.946 13.48-6.51 1.222-1.176 2.358-2.411 3.369-3.745 1.412-1.891 4.95-6.452 7.245-7.348.78-.319 1.517-.199 2.084-.02.738.238 1.518.318 2.422.238 6.193-.836 13.1-8.661 16.133-13.8 1.18-2.031 3.497-5.875 5.771-7.409.864-.577 1.748-.896 2.57-1.095a9.6 9.6 0 0 0 1.684-.518c5.77-2.311 10.762-8.284 14.153-11.012.442-.24.885-.5 1.327-.737-.211-.32-.421-.637-.653-.917-.211-.378-.359-.777-.506-1.155-.232-.597-.463-1.214-.737-1.852-.758-1.733-2.085-4.122-5.58-4.739-.802-.08-1.602-.021-2.444.139-.169.04-.4.06-.547.04-1.517-.279-2.465-4.501-2.717-5.537-.211-1.015-.569-1.992-.99-2.906-1.643-3.327-5.454-7.529-11.625-6.134-.738.198-1.559.338-2.234.079-1.853-.777-3.368-4.82-4.043-6.434-2.38-5.117-8.045-11.131-15.753-9.538-1.369.3-2.675.3-3.938-.218-2.548-1.057-4.697-4.223-6.087-6.414-3.896-6.153-11.563-12.526-19.776-9.1-1.748.756-3.517 1.075-5.39.477-3.076-.996-5.94-4.461-7.899-6.91-5.413-6.632-14.7-11.112-22.43-6.851-5.076 2.39-9.181.2-13.394-4.302-6.213-7.03-15.29-11.41-20.513-8.024-1.6.855-4.296 1.79-6.908-.16-1.095-.818-2.148-2.132-3.012-3.545-.8-1.255-1.748-2.49-2.738-3.525-5.581-6.054-11.647-5.537-14.868-3.525-1.77 1.054-5.855 3.047-8.951.697-5.582-4.341-10.067-.319-12.637 2.946-1.916 2.43-3.853 5.796-4.759 9.6-.42 1.792.168 4.262 1.2 6.791" style="fill:#1E3D28;fill-opacity:1;fill-rule:evenodd;stroke:none" transform="matrix(1.25 0 0 -1.25 -293.603 376.337)"/><path d="M635.285 211.311c-1.031-1.611-4.673-7.045-8.487-6.153-4.873 1.14-6.085-2.345-7.033-6.81-.82-3.86-3.987-8.605-8.53-7.369-6.663 1.812-9.424-2.135-10.11-7.667-1.168-9.443-5.92-12.709-11.751-7.907-6.406 5.275-11.284-1.813-13.563-7.965-3.05-8.226-9.043-12.963-15.29-7.807-7.316 6.037-13.31-.483-17.228-7.388-5.833-10.28-12.443-11.037-17.965-5.834-5.834 5.495-13.499 2.208-17.059-5.199-4-8.325-10.796-11.99-15.859-6.094-4.213 4.907-12.202 2.674-14.405-5.874-2.472-9.594-8.62-8.536-12.868-3.646-4.072 4.69-8.55 2.908-11.31.518-8.172-7.289-16.7.94-14.195 12.448.99 4.544 16.28 27.024 25.842 28.04 7.687.457 15.547.209 23.082-2.41 7.658-2.662 14.911-7.807 21.65-15.475-3.854 6.652-8.658 12.093-14.574 15.952-5.775 3.77-12.624 5.988-20.26 6.493-5.594.37-2.737 4.978-1.431 6.571 8.402 9.56 16.607 16.023 26.915 19.517 3.09 1.048 6.066 1.175 8.487.22 6.592-2.968 13.233-7.095 19.65-12.647 6.45-5.58 12.615-12.347 18.491-20.293-3.833 7.19-8.578 13.618-14.322 19.278-5.755 5.672-12.445 10.544-20.112 14.199-2.613 1.245-2.313 3.719-1.138 4.282 9.419 4.514 17.102 7.511 27.61 7.348 3.583-.055 7.77-.046 9.52-.856 12.276-5.681 21.925-17.725 32.834-32.342-6.908 12.587-14.507 23.427-28.095 31.506-3.429 2.039-2 3.167-.358 3.664 8.91 2.41 14.511 2.22 23.777 1.772 1.033-.05 4.09-.293 5.118-.817 7.037-3.578 15.543-11.51 22.957-21.09-4.613 7.988-11.49 14.451-20.703 20.951-1.486 1.05-1.114 1.715-.042 1.633 9.733-.734 19.292-1.036 28.915-2.29-9.688 1.515-19.413 2.64-29.125 3.186-2.315.13-1.454 1.594-1.075 2.071 5.455 6.83 8.593 14.38 8.214 22.943-1.433-10.137-4.301-16.743-9.962-21.667-.658-.573-3.812-1.913-4.696-2.052-9.625-1.792-14.97-1.44-23.778-.418-3.219.373-1.875 2.19-1.474 3.047 3.18 6.592 5.371 12.293 6.823 18.122 1.455 5.84 2.211 11.869 2.464 19.039-1.031-7.787-2.678-14.868-4.906-21.07-2.237-6.224-5.095-11.675-8.657-16.091-1.914-2.374-3.032-3.704-6.234-4.8-10.677-3.963-19.698-5.899-30.222-7.966-1.039-.204-2.653.936-1.474 2.908 5.097 8.285 8.696 15.919 10.994 23.74 2.272 7.732 3.306 15.75 3.117 24.672-.359-8.483-2.525-17.784-5.665-26.386-3.178-8.704-7.444-16.886-11.836-22.902-1.526-2.09-4.292-4.736-6.466-6.493-10.593-8.561-17.262-13.5-27.8-19.297-2.098-1.154-3.77-.498-2.296 2.868 4.738 10.953 8.25 20.453 10.467 29.573 2.184 8.983 3.138 17.944 3.012 27.781-1.517-11.928-4.135-23.031-7.498-33.556-3.44-10.765-7.662-21.01-11.877-31.067-5.579-13.306-24.439-31.843-27.043-32.064-6.14-.517-8.898 21.042-.653 33.22 3.53 5.21 8.9 13.277 5.77 18.938-3.63 6.566 2.282 17.258 8.994 18.302 4.957.77 15.142 7.289 11.9 16.628-3.097 8.922 6.073 14.637 14.468 14.02 6.793-.498 16.9.319 16.806 10.834-.097 11.072 10.73 10.833 18.85 6.89 6.859-3.328 15.747-7.358 19.017 1.654 2.88 7.935 11.55 3.616 17.586-2.071 6.053-5.705 14.993-12.26 16.28-4.86 1.41 8.114 8.817 2.917 15.121-7.248 4.058-6.544 10.912-13.853 14.132-9.221 2.761 3.971 9.602-3.678 13.204-10.634 2.906-5.61 6.788-10.321 12.532-11.292 3.797-.643 11.436-7.19 14.826-9.74" style="fill:#2A5038;fill-opacity:1;fill-rule:evenodd;stroke:none" transform="matrix(1.25 0 0 -1.25 -293.603 376.337)"/><path d="M477.52 234.712c-.57 2.329-3.588 14.215-7.876 3.307-5.778-14.702.587-13.153-18.112-28.42-3.821-3.12-3.41-15.534-4.15-20.851-1.386-9.977-14.866-43.107-1.621-29.872 9.446 9.438 14.385 29.394 18.723 41.384 4.254 11.35 6.883 18.88 10.72 29.155.313.837 2.423 4.86 2.317 5.297M448.015 147.505c9.098 14.358 34.897 13.164 42.963 10.575 2.739.12 18.148-19.254 3.896-17.306-7.534 1.03-10.803 1.772-18.111-7.01-3.18-4.062-26.448-.116-28.39 2.112-2.228 2.552-3.728 6.033-.358 11.63M521.938 182.834c4.93-3.545 26.871-19.594 17.375-27.523-2.74-2.288-5.55 1.185-9.499-2.927-.832-.867-4.107-.378-5.139.557-1.074.12-21.067 15.209-26.241 17.307-1.503.61-16.7 5.496-17.144 6.193-4.613 7.15 27.733 15.677 40.648 6.393M536.259 205.656c16.039 1.459 23.75-12.613 33.886-22.564 7.575-7.435-2.864-9.24-5.707-13.66-7.055-6.074-11.847 3.493-17.733 10.992-.178.228-.358.459-.547.678-13.669 16.907-21.736 14.119-26.938 18.66.422 6.412 12.268 5.46 17.039 5.894M563.237 209.56c-5.475 1.016-1.494.299-2.232.24-1.895-3.964 9.07-11.001 15.5-18.284.183-.206.42-.459.611-.676 5.011-5.717 11.79-14.371 17.25-4.94 2.458 4.25 4.085 4.064 2.463 8.863-3.496 4.82-13.848 14.543-20.492 15.912-3.507.722-10.573.378-13.1-1.116M590.932 217.904c-.417.819-.82 1.552-1.221 2.369 1.348.399 6.326 26.33 13.773 11.233 7.32-14.84 30.397-17.994 20.956-21.947-14.086-5.895-5.788-4.195-10.51-12.188-3.092-5.233-11.562 5.22-18.07 10.914-.168.14-1.137 1.534-1.032 1.633.422 2.61 9.803-1.1 16.238.239 18.188 3.784-19.415 6.335-20.134 7.747M559.236 224.674c-.148-.258-.293-.486-.421-.735-.904-1.744.652-3.008 1.285-3.963.337-.04.694-.1 1.053-.121 11.92-1.95 18.447 3.653 20.197 13.344 2.04 11.3 6.34 7.77-6.74 14.497-7.288 3.75-8.642 8.902-8.108-2.788.118-2.59-4.486-20.274-7.266-20.234M541.608 222.544c8.003 7.298 8.25 14.28 9.54 25.65.457 4.024-13.182 24.628-19.817 2.61-.693-2.299-4.402-8.614-7.92-15.833-3.537-7.259-6.866-15.553-6.802-21.11.295-9.06 17.06 1.443 24.999 8.683M490.936 200.32c15.059 11.769 13.7 20.605 19.903 34.253 5.085 11.185-.233 32.938-10.257 23.42-2.633-2.628-6.44-11.696-10.004-21.11-3.66-9.664-7.233-19.739-9.478-23.779-6.074-10.936-.526-25.59 9.836-12.785" style="fill:#3A6B4A;fill-opacity:1;fill-rule:evenodd;stroke:none" transform="matrix(1.25 0 0 -1.25 -293.603 376.337)"/><path d="M415.728 93.152c-2.08.13-3.425.754-3.497 2.07-.105 3.4 2.612 9.367 4.898 13.374 2.903 4.839 9.929 14.43 19.387 18.106.51.192 1.035.372 1.528.578.48.19.973.394 1.425.58 4.972 2.041 6.893 4.635 8.317 7.37 1.701 3.25 5.783 6.746 10.638 9.444 4.505 2.438 9.908 4.212 14.002 3.83 1.03-.094.441-.005 1.333-.218 1.34-.349 3.274-.815 5.041-.587 3.085.342 6.392 3.394 8.055 5.036 7.449 7.296 20.195 8.264 26.714 4.08 2.006-1.362 5.301-3.53 8.374-3.699 2.299-.117 4.49 1.036 6.228 2.252a16.24 16.24 0 0 0 7.762 2.8c7.324.548 13.625-4.144 17.101-8.825 1.705-2.477 4.11-6.093 6.98-7.599 1.796-1.008 3.688-1.07 5.603-.68 8.514 1.624 14.659-6.819 16.9-14.798.658-2.47 2.244-8.75 4.408-10.253.681-.53 1.421-.557 2.101-.417 1.365.18 2.765-.09 4.114-.816 4.026-2.313 6.148-8.223 6.956-13.256.281-1.671.46-3.34.478-5.014.008-2.36.137-8.131 1.449-10.217.436-.72 1.1-1.064 1.664-1.257.734-.247 1.408-.647 2.088-1.25 4.478-4.357 5.37-14.758 4.75-20.692-.262-2.334-.688-6.802.227-9.388.35-.977.87-1.76 1.413-2.409.369-.423.73-.889 1.045-1.42 3.263-5.29 3.717-13.062 4.818-17.273.213-.455.414-.926.628-1.381-.358-.131-.718-.262-1.07-.348-.394-.179-.75-.41-1.094-.627-.542-.343-1.095-.701-1.694-1.05-1.64-.941-4.13-2.072-7.306-.487-.69.413-1.298.937-1.88 1.566a1.7 1.7 0 0 1-.416.358c-1.385.679-4.66-2.15-5.48-2.831-.773-.692-1.642-1.263-2.526-1.748-3.299-1.695-8.863-2.803-12.992 1.99-.474.6-1.051 1.2-1.747 1.394-1.952.478-5.576-1.868-7.078-2.763-4.958-2.696-13.09-4.158-18.337 1.71-.922 1.055-1.971 1.833-3.295 2.169-2.676.668-6.286-.597-8.707-1.53-6.794-2.626-16.747-3.184-21.31 4.456-.953 1.649-2.185 2.958-4.047 3.594-3.064 1.03-7.427-.05-10.46-.852-8.296-2.108-18.425-.181-22.102 7.844-2.655 4.942-7.258 5.626-13.323 4.516-9.176-1.951-19.078-.07-21.26 5.76-.777 1.641-2.386 3.998-5.646 3.984-1.367-.005-2.995-.433-4.53-1.057a23.5 23.5 0 0 0-4.299-1.203c-8.087-1.542-12.654 2.484-14.046 6.018-.793 1.901-2.89 5.933-6.777 5.887-7.07-.166-8.28 5.737-8.4 9.89-.095 3.094.352 6.952 1.888 10.547.728 1.69 2.672 3.324 5.006 4.742" style="fill:#1E3D28;fill-opacity:1;fill-rule:evenodd;stroke:none" transform="matrix(1.25 0 0 -1.25 -293.603 376.337)"/><path d="M617.879 31.872c-1.79-.682-7.95-2.88-10.483.106-3.237 3.817-6.286 1.738-9.706-1.285-2.957-2.614-8.324-4.542-11.24-.844-4.276 5.42-8.844 3.893-12.687-.145-6.56-6.894-12.321-6.688-14.15.642-2.007 8.05-10.147 5.258-15.64 1.67-7.347-4.795-14.981-5.034-16.933 2.828-2.285 9.205-10.982 7.534-18.241 4.316-10.806-4.789-16.569-1.462-17.91 6.005-1.416 7.89-9.532 9.81-16.802 5.977-8.17-4.309-15.812-3.21-16.37 4.542-.465 6.45-8.214 9.412-15.073 3.852-7.697-6.237-12.007-1.728-12.51 4.731-.48 6.192-5.14 7.426-8.78 7.147-10.904-.993-12.86 10.697-3.998 18.451 3.5 3.064 29.167 12.027 37.455 7.153 6.45-4.208 12.618-9.086 17.115-15.676 4.57-6.697 7.335-15.149 8.188-25.32.861 7.638.239 14.87-2.217 21.492-2.399 6.467-6.583 12.325-12.418 17.276-4.274 3.627.765 5.63 2.761 6.134 12.442 2.68 22.882 2.99 33.246-.337 3.107-.998 5.573-2.667 6.95-4.876 3.53-6.308 6.41-13.576 8.263-21.858q2.793-12.487 2.782-27.313c1.197 8.059 1.212 16.049-.035 24.016-1.25 7.983-3.725 15.88-7.71 23.38-1.36 2.556.354 4.366 1.633 4.119 10.257-1.979 18.214-4.144 26.562-10.53 2.844-2.175 6.214-4.66 7.14-6.353 6.482-11.872 7.068-27.292 7.133-45.532 1.94 14.225 2.287 27.46-3.823 42.039-1.542 3.678.276 3.736 1.892 3.158 8.594-3.366 12.983-6.854 20.163-12.728.8-.655 3.11-2.67 3.626-3.702 3.525-7.065 5.64-18.5 5.895-30.611 1.046 9.162-.632 18.451-4.167 29.157-.57 1.727.125 2.04.939 1.338 7.383-6.385 14.885-12.315 21.873-19.052-6.885 6.983-14.03 13.676-21.51 19.897-1.781 1.482-.22 2.145.37 2.304 8.449 2.242 15.463 6.44 20.256 13.546-7.184-7.293-13.423-10.894-20.902-11.482-.869-.069-4.2.732-4.995 1.147-8.8 4.288-12.886 7.754-19.356 13.817-2.364 2.215-.202 2.876.629 3.326 6.479 3.404 11.633 6.68 16.27 10.501 4.645 3.827 8.841 8.221 13.311 13.832-5.463-5.642-11.001-10.353-16.484-14.01-5.5-3.67-11.042-6.35-16.533-7.779-2.951-.769-4.642-1.171-7.866-.146-10.939 3.17-19.341 6.984-29.026 11.586-.957.456-1.576 2.333.545 3.216 9.027 3.622 16.463 7.614 22.964 12.532 6.429 4.86 12.032 10.69 17.19 17.971-5.337-6.604-12.615-12.788-20.258-17.833-7.734-5.102-16.032-9.138-23.142-11.358-2.47-.77-6.268-1.25-9.06-1.367-13.608-.576-21.907-.575-33.826 1.038-2.373.322-3.325 1.845-.137 3.671 10.327 5.98 18.803 11.526 26.013 17.534 7.102 5.92 13.202 12.553 18.956 20.533-8.319-8.684-17.032-16.048-25.998-22.503-9.172-6.603-18.662-12.322-28.037-17.895-12.402-7.373-38.59-11.043-40.813-9.67-5.243 3.239 5.374 22.206 19.247 27.083 5.938 2.087 15.055 5.372 15.909 11.784.99 7.437 12.105 12.511 18.12 9.354 4.441-2.332 16.505-3.155 19.46 6.28 2.82 9.012 13.593 8.146 19.97 2.654 5.162-4.444 13.77-9.802 19.954-1.297 6.512 8.955 15.07 2.32 19.247-5.682 3.53-6.757 8.276-15.286 16.267-9.992 7.038 4.664 11.434-3.968 12.899-12.131 1.47-8.185 4.752-18.775 10.19-13.594 5.962 5.68 8.821-2.904 7.836-14.825-.633-7.673.523-17.627 5.868-15.82 4.582 1.547 5.528-8.672 4.282-16.406-1.004-6.238-.689-12.333 3.35-16.533 2.668-2.775 4.91-12.583 6.117-16.65" style="fill:#2A5038;fill-opacity:1;fill-rule:evenodd;stroke:none" transform="matrix(1.25 0 0 -1.25 -293.603 376.337)"/><path d="M505.03 144.578c.928 2.21 5.578 13.559-4.362 7.344-13.394-8.374-7.356-10.918-31.469-12.056-4.928-.232-11.986-10.453-15.745-14.286-7.054-7.192-37.603-25.791-19.083-23.039 13.21 1.962 29.055 15.059 39.676 22.11 10.176 6.59 16.77 11.076 25.968 17.048.75.488 4.84 2.463 5.015 2.879M429.414 92.061c15.857 6.124 35.878-10.193 40.82-17.074 2.27-1.533 3.122-26.272-7.17-16.225-5.443 5.312-7.628 7.854-18.727 5.147-4.974-1.372-21.322 15.649-21.558 18.594-.27 3.377.597 7.067 6.635 9.558M509.844 76.452c1.853-5.782 9.932-31.738-2.42-32.458-3.562-.207-3.753 4.256-9.375 3.302-1.183-.201-3.524 2.14-3.797 3.506-.792.735-7.878 24.76-10.786 29.526-.845 1.385-10.149 14.358-10.09 15.18.55 8.491 31.617-3.908 36.468-19.056M534.937 86.267c13.756-8.374 11.577-24.27 13.8-38.3 1.661-10.482-7.801-5.72-12.717-7.58-9.286-.682-7.44 9.857-7.708 19.387-.007.29-.014.581-.037.87-.92 21.723-9.06 24.284-10.538 31.028 4.155 4.902 13.108-2.913 17.2-5.405M558.94 73.347c-3.796 4.076-1.025 1.13-1.653 1.521-3.882-2.056.742-14.237 1.576-23.917.023-.274.064-.619.087-.908.624-7.576.92-18.566 10.92-14.235 4.507 1.95 5.702.833 7.256 5.655.059 5.953-2.472 19.93-6.996 24.983-2.39 2.668-8.271 6.597-11.19 6.9M586.16 63.568c.152.907.265 1.738.43 2.631 1.32-.481 20.755 17.393 17.753.828-2.95-16.28 13.717-32.551 3.777-30.107-14.827 3.645-7.147.072-15.7-3.54-5.6-2.364-6.185 11.075-8.024 19.526-.053.212-.001 1.909.143 1.926 1.891 1.846 7.223-6.719 13.19-9.473 16.867-7.784-11.83 16.647-11.568 18.21M564.72 87.875c-.272-.12-.524-.218-.776-.342-1.764-.862-1.266-2.804-1.327-3.948.247-.233.5-.494.775-.724 8.417-8.663 16.998-8.044 24.171-1.298 8.366 7.864 9.72 2.47 3.214 15.66-3.625 7.352-1.647 12.297-8.174 2.587-1.447-2.152-15.672-13.621-17.883-11.935M549.287 96.654c10.775 1.102 15.128 6.565 22.933 14.934 2.763 2.962 4.065 27.636-14.371 13.893-1.926-1.435-8.665-4.304-15.787-8.01-7.164-3.728-14.775-8.412-18.031-12.915-5.157-7.456 14.567-8.994 25.256-7.902M495.34 108.955c19.106.496 23.273 8.405 36.38 15.68 10.745 5.963 19.42 26.608 5.698 24.923-3.68-.544-12.136-5.565-20.603-11.008-8.693-5.588-17.562-11.556-21.769-13.467-11.39-5.172-15.655-20.251.293-16.128" style="fill:#3A6B4A;fill-opacity:1;fill-rule:evenodd;stroke:none" transform="matrix(1.25 0 0 -1.25 -293.603 376.337)"/><path d="M413.424 177.468c-5.374 1.615-13.098 1.955-20.351 4.193-8.166 2.522-14.58 3.754-22.986 4.682-13.778 1.523-17.512.34-30.344-4.24-6.15-2.195-12.95-6.534-19.367-2.03-.772.542-3.922.828-4.14.053-2.608.33-3.982-5.782-3.073-8.332.131-3.199 3.752-5.62 3.767-6.955.216-.485-1.693-6.016-1.762-7.472-.442-9.403 5.863-6.314 2.188-16.897-2.337-6.733-4.384-7.149-6.368-11.623-.646-4.852-4.296-4.174 2.377-10.24 2.61-3.478 1.298-8.617-1.373-11.617l-.368-.413c-.287-.32-1.5-1.648-1.504-1.66-1.993-.508-6.073-3.007-1.72-5.427 1.4-.778-2.24-2.799.916-6.263 6-6.59-9.047-6.28-1.706-12.971l.989-.901c4.193-6.105 12.279-4.369 18.916-3.948 8.488.538 7.336 3.29 7.533 7.945.242 5.717 1.636 14.833 5.656 19.138 4.52 4.845 7.18 6.695 9.294 12.67l.183.514c.616 5.472 5.602 15.214 11.046 17.245 5.37 2.002 5.272 1.65 10.206 3.025 8.836 2.462 5.51 10.072 14.15 13.355 6.93 2.633 3.216.337 11.525 4.695l.39.204c4.715 2.473 4.634 4.064 10.115 4.478 2.003.152 10.805 2.44 11.745 4.053l.472.532c1.316 1.49 1.11 4.435.674 6.254-.943 3.945-4.07 6.868-7.08 7.953" style="fill:#E87A4A;fill-opacity:1;fill-rule:evenodd;stroke:none" transform="matrix(1.25 0 0 -1.25 -293.603 376.337)"/><path d="M413.49 175.053c-5.254 1.578-12.805 1.91-19.892 4.1-7.983 2.463-14.252 3.667-22.47 4.576-13.466 1.487-17.117.33-29.66-4.146-6.012-2.145-12.657-6.386-18.93-1.983-.755.528-3.834.808-4.046.051-2.55.323-3.893-5.653-3.005-8.144.128-3.127 3.668-5.496 3.684-6.799.209-.474-1.657-5.88-1.724-7.303-.432-9.192 10.85-1.28 7.258-11.623-2.284-6.58-9.404-11.882-11.344-16.254-.631-4.743-4.199-4.08 2.323-10.01 2.552-3.4 1.27-8.424-1.342-11.356l-.358-.403c-.281-.314-1.468-1.611-1.472-1.622-1.947-.498-5.936-2.94-1.679-5.305 1.367-.76-2.19-2.735.894-6.123 5.864-6.442-8.842-6.139-1.667-12.678l.966-.88c2.049-2.984 8.106 9.006 11.404 8.736s-11.736-11.336 5.668-11.551c8.313-.103 8.587 2.172 8.781 6.72.237 5.588 1.6 14.5 5.527 18.708 4.42 4.736 7.02 6.543 9.087 12.383l.177.503c.604 5.35 5.476 14.872 10.798 16.857 5.25 1.958 5.153 1.613 9.976 2.957 8.637 2.406 5.387 9.845 13.832 13.054 6.773 2.574 3.142.33 11.265 4.59l.381.2c4.609 2.416 4.53 3.97 9.888 4.377 1.957.146 10.56 2.383 11.48 3.96l.46.522c1.288 1.455 1.085 4.333.659 6.113-.92 3.855-3.977 6.712-6.919 7.773" style="fill:#E84545;fill-opacity:1;fill-rule:evenodd;stroke:none" transform="matrix(1.25 0 0 -1.25 -293.603 376.337)"/><path d="M413.49 175.053q-.231.069-.467.134c-8.301-.54-15.534.113-24.925-1.454-7.038-1.173-41.115 3.61-53.805-12.463 16.121 7.38 30.827 10.863 43.242 5.821-5.016-3.198-37.21-7.53-44.61-13.885.365-.115 35.027 8.615 47.902 7.74-26.185-5.577-41.68-12.263-48.996-23.346 13.35 6.342 31.613 14.332 42.65 15.76-4.545.34-39.482-16.955-44.622-31.015 13.388 12.92 31.266 20.492 41.413 23.116-10.367-5.877-30.13-18.008-36.623-40.067.324.07 26.696 27.029 37.568 32.869 3.331 1.788 6.033 3.257 8.337 4.498 1.114 1.85 2.637 3.585 5.722 4.757 6.773 2.574 3.142.33 11.265 4.59l.381.2c4.608 2.416 4.53 3.97 9.888 4.377 1.957.146 10.56 2.383 11.48 3.96l.46.522c1.288 1.455 1.085 4.333.659 6.113-.92 3.855-3.977 6.713-6.919 7.773" style="fill:#C43A3A;fill-opacity:1;fill-rule:evenodd;stroke:none" transform="matrix(1.25 0 0 -1.25 -293.603 376.337)"/><path d="M404.8 157.898c-1.036-.377-14.53-5.006-16.29-5.785-1.447-.64-2.553-.857-3.98-1.49-3.947-1.746-11.397-2.543-14.585-5.303-3.364-2.912-10.096-5.624-11.08-10.263-.29-1.369-5.615-8.612-6.641-8.902-1.743-4.511-.868-9.153-4.187-11.565-5.582-4.06-4.595-9.964-5.623-15.984-.895-5.226 1.988-6.058-.495-11.892-1.857-4.361.215-19.418 3.151-23.406 2.238-3.04 2.992-5.285 6.137-9.103 7.988-9.695 9.197-4.041 14.94-9.606 3.141-3.045 2.795-5.83 7.115-8.698 2.774-2.755 13.515.394 17.271.664 6.85.49 15.073-8.641 20.766-3.837 3.779 3.188.66 3.663 8.794 6.869 2.54 1 2.446 4.383 6.713 5.196 4.698.895 8.968 4.888 9.42 9.5.401 4.093-2.776 2.982.933 8.756 1.584 2.465 2.744 4.44 1.607 6.829-1.388 2.92-3.594 4.7-6.801 9.766-2.988 4.72-4.378 8.816-8.537 14.09-2.68 3.398-4.5 8.25-8.515 12.948-7.758 9.08-2.561 19.088-.089 27.907 1.16 4.14-1.704 2.746 2.046 9.49 3.097 5.57.197 6.669.699 12.257.521 5.81-11.046 2.188-12.77 1.562" style="fill:#E87A4A;fill-opacity:1;fill-rule:evenodd;stroke:none" transform="matrix(1.25 0 0 -1.25 -293.603 376.337)"/><path d="M404.44 155.811c-1.004-.364-14.064-4.842-15.767-5.597-1.401-.62-2.473-.83-3.852-1.44-3.821-1.692-11.03-2.465-14.117-5.136-3.257-2.817-9.533-7.01-10.486-11.5-.28-1.325-5.672-6.77-6.666-7.049-1.687-4.366-.84-8.858-4.053-11.193-5.403-3.93-.296-4.083-1.292-9.91-.864-5.057-1.638-5.54-4.63-17.071-1.151-4.44.068-18.902 3.05-22.654 1.123-1.412 1.35 9.642 2.218 8.216.814-1.338-.24-11.908 3.723-17.027 7.443-9.614 8.901-3.91 14.46-9.298 3.04-2.947 2.705-5.641 6.887-8.418.69-.77 2.233-1.8 3.779-1.079 10.093 4.714-6.059 35.732-3.303 41.109 1.2-7.954 9.135-27.625 11.67-40.096.374-1.84 3.49.635 4.568.708 6.633.45 14.59-8.362 20.1-3.714 2.814 2.374-4.2 13.894-1.29 15.559.873.498 7.985-9.625 9.803-8.91 2.458.97 2.748 3.126 6.496 5.03 1.847.937 7.387 3.947 5.273 6.04-2.166 2.146-5.938 4.827-4.324 5.487.729.298 3.554-1.45 5.28-2.217 5.91-2.625.202 2.77 3.791 8.359 1.534 2.385 2.657 4.297 1.558 6.61-1.345 2.828-2.815 5.45-5.92 10.355-2.891 4.568-4.902 7.63-8.927 12.734-2.594 3.29-4.356 7.986-8.242 12.534-7.508 8.787-2.479 18.474-.086 27.009 1.123 4.008-1.648 2.658 1.981 9.186 2.998 5.39.19 6.454.675 11.862.506 5.625-10.69 2.118-12.357 1.511" style="fill:#E84545;fill-opacity:1;fill-rule:evenodd;stroke:none" transform="matrix(1.25 0 0 -1.25 -293.603 376.337)"/><path d="M404.8 157.898c-6.68-2.43-13.764-4.394-20.27-7.274-47.574-21.06-35.48-87.208-26.242-87.642-8.478 30.753-.832 58.34 10.43 62.161-9.417-23.515-7.856-52.362 7.494-74.003-5.423 25.227-13.389 50.634 4.984 73.737-4.463-19.534-6.442-45.082 8.584-73.129-2.803 10.455-11.294 35.38-.561 57.283 1.277-21.111 3.07-41.361 18.184-50.987-9.748 24.32-10.264 44.99-9.117 48.248 4.799-17.987 21.414-38.196 25.596-37.83-10.976 31.975-22.593 17.845-9.058 66.127 1.16 4.14-1.704 2.746 2.046 9.49 3.097 5.57.197 6.669.699 12.257.521 5.81-11.046 2.188-12.77 1.562" style="fill:#C43A3A;fill-opacity:1;fill-rule:evenodd;stroke:none" transform="matrix(1.25 0 0 -1.25 -293.603 376.337)"/><path d="M415.037 171.563c-1.606-.008-12.312 12.049-15.332 13.96-11.61 7.345-4.855 7.865-13.38 18.794-5.853 7.507-11.5 5.18-9.043 19.556 1.013 5.923 7.854 8.884 4.256 15.134-.663 4.056 5.593 3.618 6.926 11.409 2.185 12.786 4.16 6.327 10.056 16.928 4.927 8.864 25.384.432 20.615 9.427-1.033 1.948 4.49 3.074 5.171 3.274.945 3.683-1.802 6.182 7.077 5.413 3.402-.294 3.238 3.395 9.104-.022 4.26-2.48 9.208-5.866 14.141-5.903 7.336-.055 3.28-8.705 10.28-11.263 5.328-3.809-1.138-12.596 6.162-17.783.338-.241 3.447-1.655 4.018-1.882 1.807-.723 2.308-3.106 2.694-4.114-2.046-2.52 5.852-4.499 2.247-9.092-2.473-3.15-.661-5.781 1.12-8.67 5.917-9.583-18.52-6.79-16.69-18.577 1.062-6.83 4.99-7.208-4.893-16.204-3.632-3.308-8.193-5.318-8.873-10.513-.775-5.938-18.159-4.718-21.03-6.341-3.908-2.209-10.109-4.457-14.626-3.53" style="fill:#E87A4A;fill-opacity:1;fill-rule:evenodd;stroke:none" transform="matrix(1.25 0 0 -1.25 -293.603 376.337)"/><path d="M414.68 173.612c-1.554-.008-11.904 11.65-14.825 13.498-11.224 7.1-4.694 7.603-12.935 18.17-5.661 7.259-11.12 5.009-8.745 18.91.98 5.727 7.594 8.59 4.115 14.633-.642 3.921 5.408 3.498 6.695 11.032 2.115 12.362 4.71 4.503 10.21 14.864 1.877 3.536-3.167-33.882-.53-33.335 1.806 23.335 3.936 38.554 14.256 39.366 4.583.362 7.913.453 5.721 4.587-.999 1.883 4.342 2.972 5 3.166.913 3.562-1.743 5.977 6.842 5.233 3.29-.285 3.131 3.282 8.804-.021 1.848-1.076-6.347-22.023-4.293-23.078 4.68 9.147 5.75 23.232 17.14 15.559 5.582-3.762 2.577-8.655 10.765-9.08 5.152-3.68-1.1-12.178 5.958-17.193.328-.232-13.953-15.038-13.407-19.329.238-1.867 11.941 18.563 19.897 13.531-1.979-2.436 5.66-4.35 2.173-8.79-2.393-3.046.434-7.615 1.718-10.634 3.61-8.488-28.432-3.157-18.16-17.683 3.858-5.456 6.213-4.997-3.344-13.698-3.512-3.196-7.922-5.14-8.579-10.164-.75-5.742-17.558-4.561-20.335-6.13-3.778-2.137-9.773-4.31-14.14-3.414" style="fill:#E84545;fill-opacity:1;fill-rule:evenodd;stroke:none" transform="matrix(1.25 0 0 -1.25 -293.603 376.337)"/><path d="M415.67 178.95c-2.299 2.902-13.307 13.316-16.307 15.66-3.995 3.121-9.817 10.11-10.061 15.061-.251 5.091-1 11.988-4.084 16.229-.847 1.165-4.832 10.637-5.079 11.728.132 4.536 3.634 8.286 5.23 13.687 1.476 4.996.597 8.526-4.562 11.645-6.613 4-3.115-7.393-7.575-8.622l-.4-.194c-3.315-1.602-2.931 2.568-9.719.848-.534-.137-1.564-.251-1.795-.825-2.326-.256-.99-7.914-4.384-9.893-3.43-2.001-6.687 4.707-11.84-3.088-.413-.409-.47-4.12-4.952-1.214-1.083.703-1.373 4.025-2.54 4.07-1.494.673-11.577-8.849-12.91-12.357-1.17-3.08-.056-5.772-.078-5.8-.202-.285-.268-.384-.554-.416-.538-1.344-5.366 1.614-9.558.11-6.794-2.437-.3-5.622-5.552-6.018-5.388-.408-2.482-15.377-4.034-17.979-3.992-6.693 1.133-13.482 7.986-14.605 3.933-.645 4.99 1.71 8.02.777.103-.558 2.11-.624 1.702-5.349-.071-.817 1.24-2.088 1.263-2.206 4.107-1.264 1.984-1.433 7.834-2.107 5.186-.598 8.128-.548 13.307-1.764 3.88-.91 8.731-5.89 13.364-6.32 8.772-.813 7.644 2.644 14.212 3.007 8.69.482 11.167-3.146 13.454-2.973 2.92.22 4.046 3.523 11.111 1.497 3.512-1.007 5.023-.65 9.232-2.614 14.793-7.905 18.44-1.556 9.268 10.024" style="fill:#E87A4A;fill-opacity:1;fill-rule:evenodd;stroke:none" transform="matrix(1.25 0 0 -1.25 -293.603 376.337)"/><path d="M411.88 179.63c-2.192 2.769-12.693 12.704-15.556 14.94-3.81 2.977-9.364 9.646-9.598 14.368-.239 4.857-.954 11.436-3.895 15.482-.809 1.111-5.178 8.464-5.414 9.504.126 4.328 4.036 9.59 5.557 14.742 1.408 4.767.57 8.134-4.351 11.11-6.31 3.816-2.973-7.053-7.228-8.225l-.38-.185c-3.163-1.529-2.796 2.45-9.272.808-.51-.129-1.493-.239-1.714-.787-2.219-.245-.43-12.218-3.667-14.107-3.273-1.908-6.894 9.16-11.81 1.723-.395-.39-.449-3.93-4.723-1.158-1.035.671-1.31 3.84-2.425 3.883-13.159-7.116-5.786-15.921-1.432-21.388-4.593-.212-10.352 11.002-10.883 9.6-1.116-2.938-.055-5.506-.074-5.534-.194-.271-.256-.366-.53-.395-.512-1.283-5.117 1.537-9.118.103-6.482-2.325-.285-5.361-5.297-5.74-5.14-.39 5.434-9.902-2.164-17.72-5.181-5.332-1.43-9.077 5.106-10.149 3.754-.616 14.52 1.174 17.411.284.098-.534-6.918-3.356-7.309-7.863-.066-.777 1.185-1.991 1.205-2.105 3.92-1.206 1.895-1.367 7.476-2.01 4.946-.57 7.753-.522 12.693-1.681 3.702-.868 8.33-5.62 12.75-6.03 8.37-.776 7.293 2.523 13.557 2.869 8.292.459 10.655-3.002 12.837-2.837 2.787.211 3.86 3.362 10.6 1.428 3.35-.962 4.791-.619 8.807-2.494 14.114-7.541 17.591-1.484 8.84 9.564" style="fill:#E84545;fill-opacity:1;fill-rule:evenodd;stroke:none" transform="matrix(1.25 0 0 -1.25 -293.603 376.337)"/><path d="M412.951 173.696c-1.225-.006-7.774 7.047-12.111 11.186-12.132 19.856-11.186 45.346-6.788 67.422 3.233-12.925-2.205-38.222 9.165-50.335 1.492 2.947-6.097 44.437 5.994 64.995-.966-21.782-4.45-39.861 3.27-59.202-1.85 14.805.944 39.148 9.95 54.11-.691-14.722-6.5-38.99-3.4-52.347 3.974 22.573 9.465 35.252 17.119 47.115-5.03-14.964-11.497-46.055-6.705-49.535 2.331 12.023 4.742 22.227 21.334 31.98-2.64-3.253-16.703-18.67-15.739-33.858 1.33.84 16.18 16.376 21.495 15.07-9.111-9.57-19.984-20.065-25.06-33.428-2.547-6.703-7.065-13.293-13.922-14.334-.717-.11-3.121 1.083-4.138 1.078a10 10 0 0 0-.464.083" style="fill:#C43A3A;fill-opacity:1;fill-rule:evenodd;stroke:none" transform="matrix(1.25 0 0 -1.25 -293.603 376.337)"/><path d="M411.88 179.63c-.19.24-.444.536-.75.874-3.584 1.468-7.066 2.507-8.82 3.17-22.036 8.33-20.72 28.187-25.53 34.542-1.915-7.387 9.069-27.061 9.406-27.402-7.214 3.413-24.762 35.305-26.946 43.117-.807-12.676 18.665-45.829 18.664-45.835-6.122.287-26.587 30.97-28.793 35.654.863-10.396 9.848-23.502 19.578-35.795-7.95-.307-25.078 22.24-30.545 27.575 1.496-7.285 13.191-21.966 21.422-31.514-9.122.429-23.177 15.574-29.443 23.252 7.949-14.938 18.632-27.54 33.747-35.575 2.068.817 3.195 2.07 6.925 2.276 8.292.459 10.655-3.002 12.837-2.837 2.787.211 3.86 3.362 10.6 1.428 3.35-.962 4.791-.619 8.807-2.494 14.114-7.541 17.591-1.484 8.84 9.564" style="fill:#C43A3A;fill-opacity:1;fill-rule:evenodd;stroke:none" transform="matrix(1.25 0 0 -1.25 -293.603 376.337)"/><path d="M398.013 172.209c-2.9 2.163-23.976 2.18-37.83-5.913 12.351 3.675 26.221 3.733 34.283 1.605-14.932.785-27.958-2.094-44.975-14.006 13.826 4.16 28.367 11.36 40.559 10.611-8.052-1.611-20.317-4.082-30.065-13.803 12.436 5.75 24.029 9.216 29.84 8.896-5.566-3.03-13.693-5.681-19.104-13.468 5.809 5.01 22.64 9.443 28.638 10.138 2.37.274 4.852 3.712 1.642 10.259-1.425 2.91-1.328 5.063-2.988 5.68" style="fill:#5C1A2A;fill-opacity:1;fill-rule:evenodd;stroke:none" transform="matrix(1.25 0 0 -1.25 -293.603 376.337)"/><path d="M395.223 158.823c-3.545-.716-17.63-16.395-20.855-32.111 5.51 11.649 14.728 22.013 21.696 26.594-10.556-10.592-17.11-22.211-19.602-42.834 6.134 13.072 10.481 28.703 19.18 37.28-4.178-7.07-10.526-17.85-9.796-31.6 4.021 13.099 9.18 24.044 13.297 28.155-1.459-6.166-4.911-13.986-2.727-23.214.15 7.67 14.216 33.369 17.703 38.297 1.38 1.947-2.916 2.615-9.933 4.599-3.119.88-7.394-4.342-8.963-5.166M396.968 166.808c-3.582-.503-22.077 9.604-30.341 23.356 9.068-9.156 21.206-15.867 29.3-17.873-13.475 6.482-23.519 15.264-32.722 33.885 10.13-10.29 19.424-23.587 30.479-28.786-6.29 5.281-15.86 13.337-19.741 26.548 8.146-11.018 16.649-19.626 21.9-22.136-3.427 5.33-9.282 11.56-10.288 20.988 2.69-7.183 15.322-19.156 20.249-22.645 1.949-1.38 2.473-5.586-3.486-9.788-2.648-1.867-3.597-3.804-5.35-3.549" style="fill:#5C1A2A;fill-opacity:1;fill-rule:evenodd;stroke:none" transform="matrix(1.25 0 0 -1.25 -293.603 376.337)"/><path d="M400.996 175.005c-2.626 2.488-5.308 26.033.298 41.066-1.511-12.797.803-26.473 4.278-34.053-3.326 14.579-2.717 27.905 6.113 46.707-1.737-14.335-6.345-29.89-3.523-41.776.211 8.21.55 20.716 8.462 31.983-3.54-13.237-4.975-25.25-3.666-30.922 2.035 6.002 3.257 14.463 10.005 21.125-3.943-6.58-7.154-34.74-6.812-40.768.135-2.381-1.796-.62-8.796 1.424-3.11.908-5.467 3.684-6.36 5.214" style="fill:#5C1A2A;fill-opacity:1;fill-rule:evenodd;stroke:none" transform="matrix(1.25 0 0 -1.25 -293.603 376.337)"/><path d="M415.747 175.264c2.807-3.22 3.433-9.217 1.212-15.153-2.373-6.344-7.245-10.607-11.732-10.705-.24-1.6-2.305-4.696-2.765-7.308-.001-.003-1.418-5.762-1.084-4.346.761 3.224.182 5.015 1.605 8.92.338.924.618 1.882.85 2.841q-.266.047-.525.118c-2.215-3.457-4.282-7.009-5.69-10.903-.88-2.443 1.665 5.948 2.151 6.722.151.24 1.86 4.058 2.18 4.71q-.08.041-.158.086c-1.643-2.588-4.545-5.131-6.218-8.32-.008-.014-3.128-5.112-1.52-2.286 1.01 1.771 1.715 3.937 3.02 6.036 1.14 1.834 2.354 3.698 3.44 5.492a7 7 0 0 0-.22.207c-2.277-3.587-6.07-5.636-8.496-9.459-1.156-1.821 1.165 2.553 2.476 3.883 1.32 1.342 4.129 5.145 4.969 6.862q-.05.073-.097.15c-3.998-2.959-7.16-4.286-10.787-8.361 0 0 2.34 3.089 3.83 4.402 1.829 1.612 4.136 3.818 6.087 5.248.01.007.108.11.125.126q-.067.157-.129.315c-.927.097-8.356-3.138-9.619-3.838-.379-.21-5.234-2.43-2.45-.911 3.114 1.698 4.886 3.37 8.363 4.793.577.235 1.794.83 2.65 1.25-3.472-.776-6.295-1.875-9.361-3.741-.852-.518-4.297-1.847-.624.025 1.699.866 3.875 2.73 6.027 3.72 1.533.707 2.876 1.063 4.237 1.756l-.04.321c-3.24.333-13.22-2.607-13.517-2.465 0 0 9.299 3.532 11.806 3.76.505.046 1.082.244 1.608.247l-.004.268c-3.302-.476-7.053.067-10.744-.541-6.17-1.018 2.891.987 3.304 1 1.202.037 6.295.735 7.497 1.045q.037.507.106 1.024c-2.758-.265-11.923.487-11.235.508 3.735.12 7.811.689 11.296.796h.152q.135.679.318 1.365c-2.776.6-13.251 2.34-12.025 2.304 2.717-.078 6.586-.524 9.47-.74 1.106-.082 1.766-.078 2.967-.202q.114.331.236.662l.049.129c-.964.348-18.302 6.653-9.11 3.889 2.939-.884 6.131-1.681 9.144-2.412-.154.128-16.615 8.337-10.626 5.792 3.598-1.53 8.484-2.98 11.81-4.618q.02.037.039.073c-1.721 2.301-8.053 5.368-10.62 6.95-1.692 1.042 3.711-1.429 4.041-1.549 2.077-.756 5.452-2.745 7.406-4.027q.159.244.322.477c-1.378 1.846-3.482 3.84-5.274 5.317-.782.644-4.563 5.423-4.562 5.24 1.738-1.712 5.527-5.193 7.534-6.29 1.043-.57 2.195-2.224 3.34-2.916q.164.194.33.38c-2.42 2.974-2.354 5.433-5.618 8.875-.179.189-2.358 2.763-1.12 1.808.832-.643 3.594-3.661 4.266-4.544 1.252-1.642 2.09-3.551 3.573-5.015q.279.256.563.495c-1.114 1.368-1.1 2.31-2.011 3.799-.083.135-2.578 4.733-2.602 4.788-.139.325-1.977 4.6-1.43 3.71.393-.641.796-1.75 1.421-2.67 1.577-2.326 3.565-4.838 4.783-7.278.165-.33.852-1.107 1.11-1.4q.107.071.215.139c-1.401 3.698-3.82 5.975-3.807 10.417.004 1.4-1.02 5.589.144 1.083.912-3.53.448-3.67 2.703-6.993.64-.946 1.88-2.76 2.38-3.742l.184.082c-.196.517-1.572 6.662-1.686 7.452-.03.206-.985 7.884-.735 5.979.169-1.286 1.648-6.572 2.159-7.891.522-1.355 1.243-3.986 1.755-5.043q.157.036.316.07c.059.568-.385 1.865-.253 3.172.06.597-.033 1.941.08 3.044.097.958-.643 8.136-.427 7.06.268-1.334.168-1.904.605-3.353.45-1.496.633-3.682.645-5.269.004-.543.668-3.98.92-4.503q.179-.001.355-.011c-.006.016-.312 4.849-.443 5.688-.208 1.344.35 6.754.35 6.754.105-.115.178-5.903.506-6.797.399-1.089.97-5.75 1.035-5.891q.082-.023.166-.05c.165 1.602.103 3.281.291 5.13.211 2.061.297 3.855.835 5.852.631 2.346.444 2.757.247-.04-.247-3.535-.149-5.34-.043-8.793.021-.69.079-1.287.113-1.956.23 2.255.379 3.547.822 5.726.34 1.668.225 2.838.735 4.854.932 3.69.014-1.522.022-2.488.02-2.417-.161-4.89-.238-7.318.744 1.86 1.434 3.72 2.86 5.136.034.036 2.22 3.14 2.127 2.77-.014-.056-.089-.04-.131-.04-2.098-4.278-2.807-4.122-4.078-9.38-.13-.54-.3-1.005-.429-1.536" style="fill:#2A1518;fill-opacity:1;fill-rule:evenodd;stroke:none" transform="matrix(1.25 0 0 -1.25 -293.603 376.337)"/><path d="M414.936 152.297c4.688-1.503 9.134 11.63 6.71 17.262-53.513 15.525-105.47 41.38-153.42 77.802-1.684.526-2.577-1.605-1.149-3.001 43.03-42.067 95.578-75.266 147.859-92.063" style="fill:#E84545;fill-opacity:1;fill-rule:evenodd;stroke:none" transform="matrix(1.25 0 0 -1.25 -293.603 376.337)"/><path d="M422.322 165.086c.05 1.693-.153 3.258-.676 4.473-53.513 15.525-105.47 41.38-153.42 77.802-.325.101-.62.103-.874.032.12-.251.3-.492.545-.708 44.956-39.452 99.826-68.938 154.425-81.599" style="fill:#E8508A;fill-opacity:1;fill-rule:evenodd;stroke:none" transform="matrix(1.25 0 0 -1.25 -293.603 376.337)"/><path d="M414.936 152.297c2.309-.74 4.558 2.07 5.958 5.785-31.38 8.581-62.225 20.677-92.05 36.364 27.647-18.285 56.91-32.774 86.092-42.15" style="fill:#5C1A2A;fill-opacity:1;fill-rule:evenodd;stroke:none" transform="matrix(1.25 0 0 -1.25 -293.603 376.337)"/><path d="M268.83 243.866c-3.32 1.524-3.996 14.32-3.972 18.794 1.369-9.545 1.497-9.054 3.998-16.633.23-.137.262-.13.565-.244.344-.147.491-.697.328-1.225-.164-.53-.575-.84-.92-.692" style="fill:#E84545;fill-opacity:1;fill-rule:evenodd;stroke:none" transform="matrix(1.25 0 0 -1.25 -293.603 376.337)"/><path d="M268.914 245.617c-2.895-3.996-11.445-1.483-14.283-.26 6.878-.728 6.639-.427 12.92.872.22.268.236.313.483.684.294.417.728.466.972.108.243-.358.201-.987-.092-1.404" style="fill:#E84545;fill-opacity:1;fill-rule:evenodd;stroke:none" transform="matrix(1.25 0 0 -1.25 -293.603 376.337)"/><path d="M268.18 244.67c-.767 4.963 5.97 15.407 8.452 18.76-4.607-8.783-4.274-8.56-7.247-17.157.035-.37.056-.4.14-.834.085-.507-.147-1.09-.519-1.303s-.741.026-.827.533" style="fill:#E84545;fill-opacity:1;fill-rule:evenodd;stroke:none" transform="matrix(1.25 0 0 -1.25 -293.603 376.337)"/><path d="M268.772 247.81c.441-3.359-3.657-9.24-5.414-11.325 2.272 4.797 2.612 5.237 4.144 10.151l-.01.103v-.015l-.017.075-.052.264c-.08.51.156 1.09.528 1.297s.74-.04.82-.55" style="fill:#E84545;fill-opacity:1;fill-rule:evenodd;stroke:none" transform="matrix(1.25 0 0 -1.25 -293.603 376.337)"/><path d="M268.144 245.895c1.832 2.825 6.915 1.732 8.834.966-3.734-.434-4.127-.313-7.646-1.745l-.056-.08.009.008-.04-.073-.137-.24c-.272-.447-.709-.547-.975-.227-.267.323-.262.945.01 1.39" style="fill:#E84545;fill-opacity:1;fill-rule:evenodd;stroke:none" transform="matrix(1.25 0 0 -1.25 -293.603 376.337)"/><path d="M264.854 268.387c3.046 1.276 5.714.021 5.962-2.804s-2.02-6.148-5.066-7.424-5.714-.02-5.96 2.804c-.248 2.824 2.019 6.148 5.064 7.424M278.375 268.64c2.69.72 4.824-1.185 4.769-4.257-.056-3.072-2.282-6.147-4.971-6.869-2.69-.72-4.825 1.186-4.768 4.258.056 3.073 2.28 6.148 4.97 6.869M277.995 254.731c2.663-.177 4.372-2.864 3.815-6s-3.168-5.536-5.833-5.359c-2.663.178-4.371 2.864-3.814 6.001s3.168 5.537 5.832 5.358M262.258 241.695c2.729.732 4.895-1.203 4.839-4.321-.057-3.117-2.316-6.238-5.045-6.97-2.729-.73-4.896 1.204-4.84 4.32.058 3.119 2.316 6.24 5.046 6.971M253.624 248.59c2.06 2.525 4.498 3.18 5.445 1.461s.046-5.16-2.013-7.687c-2.06-2.526-4.498-3.18-5.445-1.462-.948 1.72-.046 5.16 2.013 7.687" style="fill:#E8508A;fill-opacity:1;fill-rule:evenodd;stroke:none" transform="matrix(1.25 0 0 -1.25 -293.603 376.337)"/><path d="M264.642 268.131c2.64 1.107 4.954.019 5.17-2.43.214-2.45-1.752-5.332-4.393-6.438-2.64-1.107-4.954-.017-5.17 2.431-.214 2.45 1.753 5.332 4.393 6.437M251.596 247.586c2.19 2.687 4.78 3.382 5.789 1.554 1.006-1.826.047-5.485-2.141-8.17-2.19-2.685-4.78-3.38-5.788-1.553-1.007 1.826-.05 5.485 2.14 8.17M262.414 241.526c2.211.593 3.967-.973 3.921-3.5-.046-2.526-1.876-5.055-4.087-5.647s-3.967.974-3.92 3.5c.046 2.526 1.875 5.055 4.086 5.647M277.869 254.263c2.234-.148 3.666-2.401 3.2-5.032-.468-2.632-2.657-4.643-4.892-4.495-2.234.149-3.667 2.403-3.2 5.034.468 2.63 2.657 4.642 4.892 4.493M278.304 268.24c2.211.593 3.966-.974 3.92-3.5-.045-2.526-1.875-5.054-4.087-5.647s-3.966.974-3.92 3.5c.045 2.526 1.875 5.055 4.087 5.647" style="fill:#E84545;fill-opacity:1;fill-rule:evenodd;stroke:none" transform="matrix(1.25 0 0 -1.25 -293.603 376.337)"/><path d="M415.41 165.864c-1.32-4.274-.828-7.707-4.628-11.958-4.124-4.613-10.23-9.975-13.465-24.33-1.01-4.48-3.076-13.67 2.2-17.824 9.26-7.292 1.795-8.617 10.657-19.714 2.899-3.63 6.285-8.177 11.05-9.017 10.313-1.82 11.141-2.797 20.93 2.473 11.898 6.407 16.962-11.118 24.84-2.311 4.044 4.52 11.852.69 13.68 11.723 2.606 15.719 24.949 11.444 19.66 21.68-2.137 7.624 9.237 7.72 1.832 14.964-.31.303.009.51-.517 1.448 2.143 4.95 5.24 3 .925 7.223-.645.63 2.156 8.34 2.156 8.34-2.476 7.61-6.892 2.095-5.753 15.005.373 4.24-4.18 1.963-1.028 7.153.602.992 1.529 2.93-.069 3.594-.334 1.19-10.21 11.096-11.128 11.437-.49 1.823-17.5 7.47-21.844 5.848-9.488-.393-4.855-1.295-15.236.046-6.566.849-14.038-4.468-22.253-7.078-8.046-2.557-9.894-11.858-12.009-18.702" style="fill:#E87A4A;fill-opacity:1;fill-rule:evenodd;stroke:none" transform="matrix(1.25 0 0 -1.25 -293.603 376.337)"/><path d="M417.772 164.887c-1.253-4.056-.787-7.315-4.393-11.348-3.913-4.378-9.707-9.466-12.778-23.087-.958-4.252-3.731-14.467 2.087-16.916 8.937-3.76 1.758-7.042 10.114-18.707.316-.442 1.13-1.988 1.67-2.145.988-.287 5.564-10.569 8.816-6.413 5.45 6.965 8.955 1.102 15.643.226 1.3-.17 3.794 3.318 3.015 5.055-5.48 12.213-6.317 14.19-4.276 11.918 2.78-3.094 3.959-10.871 19.894-17.784 3.308-1.436 8.278-3.774 8.995 1.322 2.189 15.546 11.41.072 13.146 10.543.404 2.44 1.026 4.667 2.52 5.94 7.56 6.442-15.33 16.74-13.423 17.767 1.669.901 21.948-12.104 23.571-11.438 4.728 1.937 8.4 3.5 5.988 8.304-2.029 7.235 7.196 5.916 1.738 14.2-2.792 4.24-9.538 1.316-10.038 2.205 2.034 4.699 11.815 1.569 7.72 5.575-.612.598 4.752 8.362 4.752 8.363-1.196 3.153-2.96 3.538-3.867 4.747-4.07 5.43-26.478 4.592-26.72 6.61-.102.852 24.842-1.172 24.909.186.039.793.11 1.686.217 2.695.426 4.017-3.966 1.864-.974 6.789.571.94 1.451 2.78-.067 3.41-3.298-.191-14.025 8.61-10.559 10.852-.465 1.73-16.607 7.09-20.73 5.55-11.157-2.002-5.675-2.036-14.457.045-6.12 1.451-13.322-4.24-21.117-6.718-7.636-2.426-9.39-11.251-11.396-17.746" style="fill:#E84545;fill-opacity:1;fill-rule:evenodd;stroke:none" transform="matrix(1.25 0 0 -1.25 -293.603 376.337)"/><path d="M416.73 177.798c-2.256-3.452-2.298-11.12-3.885-15.754-2.397-7.004-8.277-11.817-11.225-19.724-4.714-12.64 7.503-40.192 16.586-50.632-5.938 18.026-7.651 26.487-6.537 37.827 1.51.223 20.4-32.784 21.332-35.486.524 13.21-7.017 27.89-13.783 39.757 8.963-2.908 28.761-25.648 35.77-34.783-3.123 14.103-24.75 34.8-30.087 40.122 5.398 1.874 44.326-32.177 42.635-31.25-.648 9.348-29.605 32.933-38.827 38.106 3.27.36 32.387-7.266 49.876-17.349-5.503 9.16-35.65 23.325-46.633 26.487 8.901 3.056 38.083-4.975 52.62-9.47-11.529 7.393-29.27 15.878-52.785 18.257 20.903 7.974 31.785-.292 45.229-1.326-15.822 5.591-27.66 9.92-48.011 9.452-2.11 9.037 43.926 10.742 48.482 9.325-15.757 5.491-52.706 8.76-60.756-3.56" style="fill:#C43A3A;fill-opacity:1;fill-rule:evenodd;stroke:none" transform="matrix(1.25 0 0 -1.25 -293.603 376.337)"/><path d="M372.674 129.868c-3.284-5.15-4.321-5.165-6.473-11.901-3.925-12.293-4.704-34.763-.767-47.229l.95-2.614 1.327-4.308c-3.166 5.898-3.875 7.101-5.429 13.736-3.115 13.312-2.392 44.036 10.392 52.316" style="fill:#FFF5E6;fill-opacity:1;fill-rule:evenodd;stroke:none" transform="matrix(1.25 0 0 -1.25 -293.603 376.337)"/><path d="M375.472 126.011c-.537-2.858-1.885-5.419-2.53-9.164-2.012-11.703-.034-23.983 1.834-35.554l.339-2.557c-2.456 5.245-3.664 11.006-4.484 16.72-1.154 8.057-1.1 24.244 4.841 30.555M379.726 113.523c1.398-13.678-1.34-19.215 5.268-32.997 2.828-5.894 6.368-11.458 8.744-17.56-3.7 4.755-9.3 13.821-11.88 19.092-4.415 9.016-4.014 21.783-2.132 31.465M385.515 109.9c2.682-7.319 4.458-14.27 7.42-21.885 3.121-8.024 5.183-13.076 9.894-20.397.673-1.045.63-.862.71-2.133h-.002c-.158.226-.623.976-.834 1.21-9.422 10.52-16.469 29.211-17.188 43.205M356.03 148.15c-12.224-4.98-17.458-7.792-27.213-17.144l-2.52-2.548-2.983-2.976c6.96 12.001 18.54 21.452 32.717 22.669M352.205 153.916c-10.46-1.569-11.44-2.072-20.84-6.243-3.931-1.744-2.066-1.08-7.127-2.498 4.291 2.866 2.751 1.896 6.327 4.022 8.416 5.002 11.687 6.114 21.64 4.719M349.988 162.212c-6.132-3.085-11.46-3.531-17.375-6.269l-2.336-1.124 1.969 2.107c4.836 4.09 12.78 5.272 17.742 5.286M429.072 220.687c-.111 13.635 7.908 34.502 18.779 43.06-5.555-8.149-7.413-11.197-11.26-20.45-3.652-8.784-4.857-13.841-7.519-22.61M421.264 228.873c-.7 9.798.205 17.066 5.24 25.516 2.57 4.31 5.754 9.52 8.517 13.684-1.171-3.766-1.712-5.098-3.451-8.59-8.25-16.565-6.772-12.593-10.306-30.61M437.693 213.952c1.05 10.569 4.021 14.878 12.884 20.62l-2.257-3.016c-6.374-8.003-6.205-8.57-10.627-17.604M435.436 229.325c.18 1.53 4.519 13.712 5.437 15.525 2.518 4.977 6.893 8.983 11.494 11.98-1.721-2.29-3.148-3.846-4.874-6.006-4.888-6.113-8.874-18.334-12.057-21.5M411.122 234.935c-1.565 12.496-1.818 17.162 5.767 27.658l-1.57-4.519c-3.47-9.902-2.39-13.53-4.197-23.139M363.687 208.116c-6.72 2.836-11.375 13.214-12.655 20.032l-.4 3.297c2.893-5.54 4.991-11.504 8.327-16.818 1.568-2.498 3.593-4.347 4.728-6.511M374.213 210.23c-7.96 8.118-9.61 22.843-10.336 33.627 1.99-5.547 3.325-11.316 4.732-17.04 1.885-7.673 2.656-9.42 5.604-16.588M358.351 197.568c-5.587 3.65-14.05 15.404-16.851 21.587-2.295 5.061-3.736 9.587-4.14 15.147 4.046-9.929 5.053-13.279 10.998-22.61 2.508-3.936 8.464-11.041 9.993-14.124M358.605 107.811c-1.118-7.44-2.089-10.699-2.366-18.63-.277-7.9.458-11.444.976-18.914-4.942 10.946-4.45 27.018 1.39 37.544M350.961 135.355c-10.632-5.38-14.682-11.398-22.526-19.795h-.002c2.707 6.049 6.66 11.59 12.074 15.523 4.39 3.188 5.378 3.557 10.454 4.272M433.226 174.316c11.938 6.572 28.045 6.029 40.255.304l3.44-1.714 3.458-1.549-3.82.66c-3.696.998-6.325 2.477-10.737 3.431-12.705 2.748-20.32 1.318-32.596-1.132M439.46 164.341c9.717 1.388 21.284 2.78 29.62-3.624-3.2.812-3.175.822-5.98 1.406-8.392 1.744-15.086.714-23.64 2.218M440.458 153.868c14.306 1.154 24.313-3.407 35.023-12.393 3.129-2.626 5.441-4.058 8.78-6.421-7.842 3.11-7.847 4.032-14.208 8.194-12.074 7.897-16.104 7.828-29.595 10.62M440.962 140.81c14.68-4.324 10.783-1.54 23.569-11.879l2.77-2.33 1.22-1.607c-2.566 1.383-1.552.804-4.803 2.766-4.042 2.443-9.838 6.924-13.445 8.612-5.374 2.515-3.296.598-9.311 4.439M434.58 131.8c15.501-5.833 20.197-19.506 27.373-33.063.75-1.415 1.024-2.876 1.403-4.408-2.946 4.474-6.197 9.896-8.921 14.469-7.461 12.519-8.026 14.132-19.855 23.003M425.116 128.521c4.006-1.536 11.612-8.297 13.883-12.4 2.285-4.128 2.842-6.622 4.004-11.155h-.001c-1.782 2.999-3.959 7.296-5.83 10.042-3.289 4.828-10.412 10.668-12.055 13.513M449.3 159.783c15.872-2.62 25.212-3.749 37.678-14.43-7.359 3.686-9.387 5.055-17.117 7.6-5.194 1.709-16.625 4.444-20.56 6.83M449.115 171.708c2.067.21 5.619-.267 8.366-.297 4.765-.05 11.656-1.679 15.7-4.472l3.134-2.837-.001-.003c-6.211 2.806-6.372 2.79-12.271 4.124-3.854.873-12.574 1.862-14.928 3.485" style="fill:#FFF5E6;fill-opacity:1;fill-rule:evenodd;stroke:none" transform="matrix(1.25 0 0 -1.25 -293.603 376.337)"/><path d="M375.734 131.585c-1.884-7.076-4.145-9.22-5.503-16.687-1.414-7.771-3.242-17.238-3.068-25.094.137-6.147.117-11.13 1.71-17.106-2.41 4.281-2.232 4.662-2.828 9.643-1.234 10.289-1.464 14.343.584 24.318 3.047 14.828 2.595 12.695 9.105 24.926" style="fill:#FFF5E6;fill-opacity:1;fill-rule:evenodd;stroke:none" transform="matrix(1.25 0 0 -1.25 -293.603 376.337)"/><path d="M379.768 130.278c-1.187-6.734-2.36-10.581-3.102-17.773-.643-6.249-.54-12.322-1.19-18.146-2.832 11.137-1.62 25.938 4.292 35.92M346.283 226.064c2.968-8.8 9.126-15.925 15.052-22.92 3.575-4.22 6.809-7.192 10.537-11.051-9.407 4.247-26.104 23.271-25.589 33.97M355.41 150.787c-6.677-1.903-20.518-6.315-26.18-10.342.62 1.592.993 1.843 2.54 2.99 6.252 4.632 16.468 8.327 23.64 7.352M353.505 141.939c-1.238-.682-2.929-1.01-4.219-1.543-4.661-1.927-4.868-2.445-10.18-3.74 3.328 2.875 9.727 7.592 14.4 5.283M426.252 231.99c-.627 7.331 1.982 13.19 5.867 19.273 1.938 3.035 1.555 2.399 3.83 4.85-3.192-8.54-6.836-14.963-9.697-24.122M356.442 194.039c-18.606 8.647-36.88 18.64-54.71 29.984 12.9-12.155 32.048-23.025 54.71-29.984" style="fill:#FFF5E6;fill-opacity:1;fill-rule:evenodd;stroke:none" transform="matrix(1.25 0 0 -1.25 -293.603 376.337)"/><path d="M274.643 240.868c2.206-3.782.502-1.781-.05-2.554-.27-.379.315-1.846-.298-1.512-.662.36-3.877 2.403-3.728-.53.147-2.915 3.375-3.115-.765-3.038-1.955.037-.965-1.796.34-2.144.03-.113-.002-.078.046-.175-.408-.841-2.31-1.627-.809-2.484 2.178-1.24 3.119 2.072 4.069 2.104 1.17.038 2.986-2.716 4.087.558.67 1.992-3.968.982-3.85 3.294.084 1.636 2.612 1.15 3.536-.563.51-.554 2.01-1.928 1.825.05-.048.508-2.848 3.282-.626 2.794l.198-.086c.245-.108 1.874-4.006 3.54-1.856.517.666-2.307 3.841-.462 3.522 1.636-.283 1.49.65-.583 1.513-1.201.5-.772 2.093 1.338 2.664 1.842-1.781-.57-1.884 1.899-3.922 1.7-1.404 2.026.45.877 2.605l-.202.378c-.124.232-.27.696-.077.94.119.15 1.815.778 2.471-.42.658-1.2 1.242-1.859 2.35.255.823 1.57.228 4.193-1.953 5.077-2.087.845-3.425-.817-3.93-2.464-.538-1.761-3.057 3.557-3.627.454-.845-4.616-9.086 1.49-5.616-4.46m14.3-1.67c.073.192-.008.213.083.358.499.047 2.209 1.771 2.062 3.068-.384 3.41 3.98 3.713 3.516.401-.412-2.957-4.014-1.105-3.17-3.108.825-1.955 2.445.352 2.97.662.512-.237 1.563-.832 1.836-.923 2.826-.94-.887 2.245.812 2.911 3.28 1.284 3.056-2.129 2.742-4.101-.591-3.7-3.816-3.044-3.984-4.749-.157-1.606 1.763-.209 2.014-.194 3.182.194.273-3.099.973-3.184.262-.539.931-2.296-.402-1.993-4.214.96.159-1.67-1.257-3.485-1.882-2.413-1.66 5.625-5.162 4.107-1.082-.469 1.228-.115.586-2.607-.78-3.017 3.132-3.535 1.965-4.646-2.297-2.189-1.45-1.515-2.57-4.19l-.127-.303c-.619-1.477-8.345-1.7-4.81 1.838 1.475 1.476 1.207 3.234.19 3.236-1.617.005-1.645-1.494-2.048-2.557l-.208-.549c-1.888-2.123-2.257-.544-3.268-.068-1.724.81-2.952-1.808-2.95-2.384 0-1.44 2.164-1.74 2.46-.785 1.206 3.885 4.83-.592 2.38-1.194-2.463-.606-1.525-.851-1.77-2.007-.535-2.521-2.568-2.805-2.825-1.104-.464 3.069-2.297.77-1.634 2.737.717 2.129.63.876-.316 1.328-1.483.71-.19 1.785.136 2.216 1.02 2.226-3.24-.33-4.02-.01-2.18.895 1.032 1.735.484 2.542-.107.311-1.795.875-.847 3.025l.064.147c1.73 3.93 2.928 1.866 2.914 1.16-.032-1.578.928-2.665 2.534-2.532 2.263.186 3.285 2.525.995 2.48-4.184-.082-.96 5.178.487 3.879 2.387-2.142.764 1.216 3.511-.328 1.415-.795.89-1.652-.259-2.158-1.486-.654-.524-1.405.842-1.365 2.764.082 1.046 2.395 1.016 2.919-.122 2.177.277 2.964 2.371 2.043 1.506-1.066 1.185-.509 1.468-.685.351.208.736.12.846.479.244.804 1.25 2.52 2.077 2.006.856.664 1.521-2.146 3.717-1.124.071.777.513.587-.573 1.391-1.906 1.41.239 2.065.34 2.216.848 1.285-2.45-.524-2.41.55.065 1.72-1.43 1.598-1.647.957-.49-1.46-.366-.53-1.02-1.048-.474.168-1.307.41-1.614.802-.613.784.892-.14-.787 1.91-1.097 2.239.934 1.077 1.287 2.013m16.222-4.793c-.43.655.812 2.47-3.241 1.777-2.886-.494-.08-2.431-1.778-4.42-.478-.558-.7-2.525 1.54-.775 1.523 1.19-.633 2.028 1.884 2.447.907.15 1.834.606 1.595.97m3.727-4.331-.376.476c.938 1.016-3.83 4.803-4.609.303-.283-1.635 1.223-2.125-1.503-2.349-2.27-.185-2.426-1.766-1.198-3.315 1.281-1.617-1.8-2.186-2.243-2.392-.358-.26-.109-1.277-.689-1.857-.011.004-3.519 2.27-2.565.604.464-.809 1.857-1.215 1.352-2.26.063-.101-.003-.273-.11-.312l-.336.196c-1.638 1.436-2.123-.21-1.122-1.416 1.184-1.422 5.266-2.139 6.107-.246 1.493 3.362-1.055 4.107 2.32 5.1.752.221.758 3.3 2.104 1.15.382-.61 1.522-2.644 2.305-1.015 1.448 3.018-4.663 3.002-1.345 4.458.971.426 4.528-2.598 3.122 1.878-.097.128-1.164.933-1.214.997m4.36-5.957c-.028.1-.034.103-.119.175 1.051-.776-1.768-3.16-.202-3.908 3.888-1.86 1.384-6.795.407-4.685-2.432 5.261-3.884 1.187-5.298 4.306-1.01 2.227 1.878.07 2.416 3.882.19 1.338 2.384 1.73 2.796.23m4.194-1.378-.348-.128c-.865-.32-3.549-1.187-1.257-2.276 1.386-.658 4.55 2.857 3.72.512-.145-.412-4.299-3.477-.657-3.326l.231.01c2.743.114 1.583 3.064 2.397 3.432.77.347 2.232-.563 2.232.539 0 1.685-1.208 3.161-1.185 3.259-.297.297-2.352 1.413-2.122-.889-.176-1.516-3.234 3.632-3.232 1.212 0-.526.73-1.18 1.048-1.792-.052-.055-.821-.55-.827-.553m-10.07-9.177c-1.533.687-.906 5.484-5.252 3.743-.018-.084-.023-.277-.027-.369-.145-2.986.284-1.834-1.614-1.762-2.494.095-.658-5.035 2.149-3.561 2.902 1.522 3.54-1.987 1.758-2.776-1.98-.876-2.99-.285-4.485.516-2.204 1.184-1.462 2.236-2.308 3.337-2.438 3.173-4.726.165-2.294-1.338 3.74-2.312 1.417-1.777.174-3.708-1.811-2.814 1.38-3.203 2.031-3.588 1.265 1.483.545 1.775.932 2.267 1.354 1.72 1.637-1.68 2.323-1.228 1.98 1.312 1.576.724 2.76-.66.863-1.01 1.745.556 1.76.567 1.76 1.258.535-2.264.617-3.255.16-1.946 2.058-1.901 2.452-1.678 1.963 1.12.974 1.022 2.514 2.333 1.015.865 3.283-.942 4.058 1.891.977 3.572-3.872 2.432-3.282 1.092.858-1.951-.325-1.762-.326-1.76-.696 1.15-1.547.026-2.672.354-1.734.503-.167 1.112-.152 1.125 1.091.853-1.322 1.423.23 1.747 1.674.35-1.92 2.71 2.084 1.943 1.793-.687 3.28 1.03 3 2.296-1.661 3.99-2.074.745-3.064.167-1.888-1.102-1.003 1.127-1.016 1.576-.047 1.61-1.628 1.678-2.35.73m-19.415-4.048c-.135.376-.098.215-.15.509-.29 1.64-3.012 1.556-3.505-.937-.443-2.243 1.931-3.192 3.38-1.614.455.497 1.717.608 1.278-1.027-.41-1.533 3.976-.82 1.818-2.506-1.081-.845-1.192-1.478.217-2.285.927-.53 4.987 1.666 3.424 3.279-.864.89-2.824-1.149-2.94 1.935-.032.864 2.677 2.381.303 4.459-.344.302-2.604.73-2.29-1.059.279-1.581-1.325-1.339-1.535-.754m33.214.786c-.371 1.043-2.494 1.357-1.876-.25.739-1.92-3.3-.662-2.693-2.336.225-.62 3.34-3.404 3.89-1.589.833 2.748 3.223-.598 2.951 2.134-.168 1.689-2.123 1.933-2.272 2.041m-2.87 4.634c-.372 1.043-2.495 1.356-1.877-.25.739-1.922-3.299-.662-2.693-2.336.224-.622 3.34-3.404 3.89-1.589.833 2.748 3.223-.598 2.952 2.133-.169 1.689-2.122 1.933-2.273 2.042" style="fill:#D4993D;fill-opacity:1;fill-rule:evenodd;stroke:none" transform="matrix(1.25 0 0 -1.25 -293.603 376.337)"/></g></svg>