<svg xmlns="http://www.w3.org/2000/svg" width="1443" height="1939" viewBox="0 0 1443 1939"><path fill="#3A6B4A" d="M1267.5 1927.1c-17.928-5.215-32.22-18.345-60.255-55.355-19.541-25.798-26.289-30.757-41.844-30.757-10.023 0-14.252-8.47-14.37-28.785-.017-2.984-.69-6.29-1.544-7.594-2.583-3.943-7.193-17.772-8.462-25.387-2.005-12.03-9.505-20.626-32.025-36.708-16.22-11.583-28.265-20.981-57-44.472-46.504-38.017-70.493-54.454-98.757-67.668-6.459-3.02-12.868-6.037-14.243-6.706s-3.107-2.558-3.848-4.198-2.766-3.887-4.5-4.995c-3.476-2.22-4.522-5.993-2.638-9.513.958-1.79.616-2.986-2.167-7.578-12.266-20.239-27.589-28.773-70.894-39.484-32.447-8.025-45.214-12.722-58.557-21.539-6.82-4.506-7.737-4.334-5.441 1.022 18.762 43.77 13.468 86.946-15.387 125.51-33.438 44.695-80.897 81.56-122.91 95.468-13.694 4.535-45.12 10.622-54.841 10.623-6.16.001-12.73 2.795-25.726 10.94-13.126 8.227-20.624 9.965-27.394 6.351-1.76-.939-3.545-1.726-3.967-1.75-.974-.053-4.158-4.736-7.205-10.6-3.645-7.014-5.369-17.752-6.012-37.442-.324-9.9-.846-20.925-1.16-24.5l-.573-6.5-9.142 9.616c-26.647 28.027-52.277 45.326-67.217 45.367-8.098.022-9.294-1.062-17.427-15.8-6.04-11-20.99-79.8-20.99-96.7 0-17.488-15.281-16.057-29.695 2.78-15.77 20.61-39.086 39.59-63.867 51.993-41.514 20.777-115.81 25.63-134.02 8.752-1.8-1.668-3.865-2.514-6.138-2.514h-3.426l.612-5.25c.337-2.887.76-9.525.942-14.75 1.377-39.609 45.95-100.49 90.211-123.22 28.47-14.6 93.38-21.4 93.38-9.7 0 6.181-3.248 8.653-18.307 13.933-9.85 3.454-9.862 3.471-3.496 5.03 16.533 4.046 34.447.56 64.804-12.608 4.675-2.028 13.187-5.375 18.917-7.44l10.417-3.751-8.059-4.193c-49.129-25.56-91.174-88.263-96.994-144.65-3.69-35.762 101.08-19.12 161.84 25.706 14.593 10.765 35.837 29.825 36.495 32.742 8.644 38.331 24.892 47.421 66.382 37.14 11.247-2.788 15.643-3.385 26.342-3.576 15.892-.284 15.968-.352 10.617-9.514-27.78-47.568-34.345-103.18-20.794-176.16 1.78-9.585 2.503-11.77 3.896-11.77.94 0 3.156-.608 4.925-1.352 4.494-1.89 10.679-.541 19.604 4.273 20.029 10.803 30.82 10.22 34.508-1.864 3.745-12.27 1.98-54.578-3.59-86.057-1.898-10.725-4.143-26.025-4.989-34s-2.433-19.9-3.528-26.5-1.998-13.8-2.006-16c-.033-8.34-.546-8.05-21.647 12.234-65.702 63.156-74.793 65.937-113.59 34.756-15.995-12.856-13.156-17.62 11.25-18.88 22.262-1.149 44.982-11.406 57.36-25.895 11.204-13.115 46.234-78.933 47.369-89.002 1.205-10.698-8.431-21.015-23.682-25.354-3.051-.868-8.247-2.506-11.547-3.64-9.01-3.097-35.354-3.065-47.795.057-18.72 4.698-25.592 9.582-42.46 30.18-41.17 50.2-93.84 57.4-178.24 24.3-65.65-25.8-109.89-39.4-160.48-49.4-52.89-10.4-86.588-24.4-113.52-47.01-3.575-3.01-8.874-6.96-11.775-8.8-35.09-22.17-47.443-100.78-36.2-230.34 1.087-12.51 1.975-30.3 1.975-39.53 0-15.79 1.78-35.84 4.099-46.14.566-2.52 1.41-7.28 1.877-10.58 3.608-25.55 25.576-70.96 54.43-112.5 17.404-25.06 25.072-37.87 40.834-68.25 1.64-3.16 4.585-7.153 6.544-8.873l3.563-3.128 10.105.449c10.983.488 16.853 2.473 26.068 8.813 7.786 5.357 9.215 3.045 4.548-7.357-16.596-36.989-19.643-81.778-7.97-117.16 10.757-32.61 26.904-54.7 71.263-97.5 28.514-27.51 42.874-51.766 49.138-83 4.268-21.28 15.535-32.43 37.386-36.998 41.897-8.758 68.937-16.183 99.08-27.206 39.708-14.52 69.963-29.38 115.92-56.933 48.1-28.836 72.73-25.325 99.007 14.114 8.246 12.375 8.242 12.75-.055 6.027-31.8-25.755-54.88-23.99-108.85 8.326-60.97 36.506-119.72 60.144-171.87 69.144-32.4 5.591-43.019 13.786-53.109 40.985-10.902 29.39-24.01 48.023-59.17 84.111-38.38 39.395-52.936 66.796-56.823 106.98-2.875 29.716 9.334 77.315 26.276 102.45 9.692 14.376-7.465 24.862-27.134 16.584-29.789-12.538-49.967-3.457-75.057 33.781-46.156 68.48-67.794 127.8-68.273 187.14-.398 49.34 2.008 176.48 3.463 183 10.897 48.82 38.028 69.44 149.69 113.75 48.254 19.151 201.1 70.374 221.83 74.34 29.414 5.628 53.172-4.875 75.99-33.594 39.477-49.687 78.068-59.43 133.25-33.645 12.003 5.61 20.79 7.645 33.001 7.645h10.61l9.91-4.887c15.078-7.433 22.94-13.479 29.616-22.77 8.338-11.606 8.52-10.696-2.875-14.358-23.311-7.491-43.202-8.236-63.868-2.391-35.196 9.953-76.038 6.055-118.46-11.306-16.73-6.847-24.266-9.126-47.306-14.307-41.463-9.325-61.503-17.815-75.045-31.796l-3.85-3.976 7.003-4.161c28.098-16.693 50.128-15.505 72.698 3.918 49.115 42.268 199.59 28.491 205.16-18.785 1.43-12.07-15.4-51.29-33.97-79.16-15.17-22.77-42.24-40.54-83.38-54.77-48.05-16.6-76.3-49.64-76.75-89.73-.177-15.764-1.5-19.274-12.433-33-12.205-15.322-13.648-21.609-8.526-37.122 5.336-16.157 2.446-33.994-8.485-52.378-21.946-36.909-24.685-58.198-10.364-80.547 2.098-3.274 6.442-13.153 9.654-21.953 16.9-46.312 46.909-105.06 66.654-130.48 14.486-18.654 57.402-59.22 52.028-49.18-1.904 3.556-1.205 3.42 3.626-.71 6.264-5.354 6.241-5.007-.39 5.964-7.18 11.879-18.554 35.52-29.785 61.91-24.292 57.078-39.78 83.105-66.322 111.44-27.455 29.315-25.72 55.594 6.453 97.687 34.472 45.1 100.44 76.523 142.65 67.948 12.686-2.577 15.222-2.155 16.2 2.7 2.216 11.014 5.867 19.021 15.372 33.721 9.118 14.1 10.628 20.556 6.648 28.411-7.445 14.691-5.407 20.712 8.788 25.965 3.208 1.187 8.696 3.886 12.196 5.996 3.853 2.324 10.82 5.12 17.667 7.09 13.56 3.903 24.268 8.8 28.163 12.88l2.858 2.995-2.858 1.468c-15.46 7.937-26.031 4.879-91.86-26.572-13.2-6.307-27.15-12.695-31-14.197-7.278-2.839-13.894-6.626-21.393-12.243-22.92-17.17-28.607 28.134-6.587 52.467 12.896 14.25 45.826 34.425 75.48 46.244 47.702 19.01 67.023 16.502 85.52-11.106 14.521-21.673 23.501-22.032 40.653-1.629 1.763 2.096 4.498 3.36 11.276 5.21 13.73 3.76 42.55 14.64 42.55 16.08 0 6.27-17.957 15.735-38 20.032-20.487 4.392-27.39 8.552-44.117 26.584-22.35 24.09-30.88 32.06-38.88 36.33-12.809 6.833-11.518 12.851 4.364 20.343 27.518 12.98 29.434 23.054 11.164 58.68-10.713 20.89-11.047 22.013-6.278 21.113 11.557-2.18 29.742-39.783 30.18-62.406.25-12.859-3.514-10.76 53.468-29.814 62.04-20.75 85.47-37.91 111.81-81.92 26.96-45.05 37.25-53.4 73.29-59.48 28.084-4.737 41.95-12.695 48.815-28.016 6.184-13.796 8.5-22.695 7.87-30.223-.899-10.717 2.512-15.612 20.406-29.28 16.148-12.337 31.292-27.58 36.998-37.242 10.67-18.065 23.593-46.555 26.696-58.856 2.443-9.685 8.29-21.649 16.454-33.669 3.292-4.847 6.873-11.157 7.957-14.02 2.134-5.64 4.382-8.708 6.378-8.708.694 0 2.24-1.58 3.434-3.513 4.449-7.198 8.152-7.195 15.992.013 3.29 3.025 6.345 5.5 6.787 5.5s.648 4.163.456 9.25c-.33 8.778-.135 9.837 3.825 20.75 10.81 29.786 10.64 36.409-1.541 59.399-10.17 19.193-11.332 28.542-5.115 41.12 1.973 3.993 3.588 7.72 3.588 8.282 0 3.63-12.94 10.327-56.5 29.24-14.3 6.209-26.151 11.403-26.336 11.543-.967.732 3.55 7.86 6.32 9.973 4.084 3.115 11.758 3.285 20.016.443 18.109-6.23 21.488-2 17.479 21.884-7.958 47.414-30.673 66.377-75.46 62.995-5.488-.414-10.122-.61-10.298-.434-.99.99 1.57 6.336 5.393 11.26 5.684 7.32 5.591 7.918-1.365 8.77-13.061 1.6-20.072 5.097-40.524 20.216-15.55 11.495-20.86 14.358-34.024 18.343-27.164 8.224-57.591 18.84-86.91 30.322-9.188 3.599-21.788 7.737-28 9.197-40.76 9.57-48.79 14.25-48.79 28.42 0 16.083 17.464 29.892 57.5 45.468 23.595 9.18 24.556 9.67 31.249 15.93 5.508 5.153 15.252 19.12 15.252 21.861 0 .431-1.712-.297-3.804-1.617-20.39-12.872-29.883-14.93-70.209-15.217-28.679-.205-40.158-.94-47.238-3.026-3.462-1.02-1.76 2.647 2 4.308 35.892 15.862 47.805 26.145 51.234 44.224 2.519 13.28-2.43 26.358-18.914 49.986-3.716 5.327-3.957 9.722-.978 17.874 1.15 3.15 3.808 11.58 5.906 18.733 7.524 25.651 17.453 51.05 40.443 103.45a30528 30528 0 0 1 18.474 42.171c9.707 22.271 14.084 24.52 35.585 18.283 42.99-12.468 77.064 3.648 120.7 57.088 22.254 27.252 23.186 27.624 32.088 12.83 3.584-5.956 7.305-13.25 8.269-16.207l1.752-5.376-3.527-7.124c-9.439-19.062-13.65-20.98-23.447-10.674-8.855 9.315-17.657 13.197-16.058 7.084.98-3.748-1.204-17.184-3.669-22.567-6.903-15.08-17.566-21.666-47.6-29.403-16.145-4.16-18.699-6.315-14.703-12.412l1.581-2.413 41.612-.743c96.614-1.726 126 10.417 155.81 64.386 15.605 28.248 27.302 28.646 105.22 3.574 49.518-15.932 44.161-14.74 41.341-9.204-25.175 49.417-66.908 80.39-128.38 95.277-87.67 21.233-145.6-2.164-190.93-77.112-19.685-32.546-33.239-38.003-59.963-24.138-28.442 14.756-33.258 32.804-18.007 67.484 22.667 51.544 48.008 85.262 79.477 105.75 11.997 7.81 12.804 9.33 10.45 19.677-8.747 38.442 1.745 67.083 44.074 120.31 22.17 27.878 23.162 29.343 48.13 71 51.564 86.031 82.777 133.33 115.82 175.5a14393 14393 0 0 1 22.258 28.5c6.424 8.25 15.788 19.301 20.81 24.557 10.131 10.607 12.38 14.137 12.38 19.443 0 14.097-18.29 22.2-37.5 16.612zm-704.02-324.2c9.468-19.157 21.167-31.139 59.856-61.298 6.985-5.445 16.403-13.412 20.931-17.704l8.231-7.804-14.5-.017c-35.753-.042-74.926 5.639-117.32 17.014l-3.819 1.024 4.457 3.403c15.5 11.835 24.492 31.128 28.655 61.483.565 4.125 2.004 12.195 3.197 17.934l2.168 10.434 2.292-8.633c1.26-4.748 3.893-11.875 5.852-15.837zm466.97 5.851c-.374-1.237-3.136-8.325-6.137-15.75-7.43-18.384-9.498-22.152-47.56-86.622-45.929-77.796-80.798-150.47-104.3-217.38-11.909-33.907-32.843-90.557-37.508-101.5-3.568-8.372-6.905-17.57-21.943-60.5-12.417-35.448-14.264-37.678-34.329-41.438-10.72-2.008-21.096-5.608-29.428-10.208-5.673-3.132-6.592-3.353-10-2.407-5.566 1.546-6.07 1.298-2.752-1.359l3-2.402-2.793-2.2c-1.536-1.209-5.108-4.175-7.939-6.59-17.422-14.872-53.61-8.206-58.859 10.841-1.89 6.864 8.69 78.324 12.165 82.155 4.048 4.462 17.58-12.57 22.95-28.884 10.684-32.467 24.033-42.253 21.602-15.837-.851 9.256-2.024 27.854-2.606 41.33-2.703 62.606-3.128 71.283-4.072 83-2.349 29.146-7.043 56.04-13.548 77.624-2.858 9.482-3.606 13.69-3.712 20.875-.21 14.31.287 15.033 29.856 43.518 32.018 30.844 43.666 54.315 45.402 91.482 1.554 33.27 3.129 34.636 58.927 51.12 97.108 28.687 143.81 51.006 183.63 87.751 6.475 5.976 11.228 7.59 9.954 3.38zm51.6-509.3c-20.265-5.166-37.954-15.942-68.093-41.48-45.843-38.844-66.727-52.579-93.03-61.18l-10.15-3.34 4.388-.722c2.413-.397 12.712-.47 22.887-.16 19.396.59 30.28-.671 37.463-4.337 5.182-2.645 14.23-9.658 15.844-12.28 9.526-15.478 31.657 1.174 71.594 53.87 28.58 37.71 46.049 52.642 70.287 60.083 4.02 1.235 7.986 2.48 8.811 2.769 2.266.792-5.73 4.07-16.737 6.862-13.258 3.363-29.816 3.323-43.263-.105zm-70.739-152.24c-2.742-1.863 27.745-27.134 51.353-42.567 37.148-24.284 71.998-36.588 113.89-40.208 58.505-5.055 84.515-20.626 106.01-63.462 9.656-19.242 25.668-27.357 65.01-32.947 48.363-6.872 51.072-9.754 50.189-53.399-.737-36.44-2.908-46.088-19.952-88.654-9.472-23.655-14.176-37.687-16.794-50.097-3.597-17.049-6.748-20.027-26.306-24.864-20.925-5.174-36.009-13.058-70.164-36.669-26.636-18.413-40.635-26.518-56.244-32.563-5.108-1.978-5.54-4.445-1.75-10.022 3.174-4.67 3.198-4.568-1.25-5.371-10.65-1.923-11.514-6.877-2.876-16.485 17.384-19.336 17.271-30.662-.53-52.928-27.353-34.214-39.92-62.65-42.777-96.797-1.065-12.737-10.07-38.347-22.572-64.203l-2.66-5.5.59 6.474.591 6.473-5.307-5.241c-10.784-10.65-15.931-22.514-17.687-40.768-1.319-13.706-1.629-14.445-16.321-38.92-17.383-28.957-20.624-32.44-38.201-41.041-13.402-6.56-22.815-9.238-54.5-15.506-48.52-9.628-75.87-19.953-108.5-40.995-40.54-26.141-70.07-30.57-111-16.648-11.375 3.868-25.031 6.582-51.146 10.166-21.667 2.973-34.346 6.044-46.124 11.175-10.383 4.522-17.877 5.115-22.774 1.802-1.626-1.1-3.817-2-4.868-2-1.437 0-2.387-1.42-3.823-5.717l-1.91-5.717 3.693-3.283c11.177-9.936 30.379-16.408 64.476-21.73 3.588-.56 12.588-2.852 20-5.093 77.68-23.483 98.58-21.939 168.16 12.421 60.7 29.978 88.72 40.916 123.31 48.131 65.2 13.593 85.3 40.137 136.5 179.49 26.145 71.218 37.929 97.153 58.836 129.5 19.18 29.675 16.602 48.526-9.167 67-7.04 5.048-7.22 4.618 3.008 7.262 12.781 3.303 22.222 8.322 47.817 25.415 23.664 15.803 28.8 18.465 52.785 27.364 57.08 21.176 87.304 63.328 102.24 142.58 19.927 105.75 13.038 122.22-53.1 126.92-40.77 2.895-62.486 15.082-80.12 44.96-18.384 31.15-43.505 46.488-80.303 49.027-48.167 3.324-73.898 11.37-155 48.468-30.569 13.983-40.864 17.375-44.739 14.743zm-682.61-34.36c-6.98-3.683-11.929-14.256-15.662-33.46-2.886-14.844-4.535-18.87-11.371-27.76-2.658-3.456-3.323-3.79-7.048-3.54-4.275.285-5.163-1.526-2.399-4.89.743-.903.082-2.29-2.406-5.043-9.15-10.128-11.263-19.7-10.429-47.238.92-30.36-.282-35.218-11.8-47.669-7.735-8.362-11.526-14.229-19.58-30.303-7.7-15.364-12.07-21.886-19.432-29-6.662-6.439-6.789-8.31-1.483-22 3.43-8.85 3.425-8.791.915-12-2.91-3.722-2.454-4.81 2.318-5.525 3.879-.582 4.635-1.173 7.428-5.811 1.71-2.84 9.202-13.94 16.65-24.664 7.959-11.462 14.222-21.561 15.193-24.5 2.621-7.936 7.322-18.366 12.014-26.657 2.383-4.212 5.55-10.737 7.037-14.5 11.97-30.287 34.986-29.876 36.89.66.36 5.773 1.5 13.647 2.534 17.497 3.82 14.22 3.59 22.576-1.654 60-10.22 72.942-5.91 95.697 22.714 119.91 12.556 10.623 16.557 19.285 27.467 59.471 8.739 32.188 18.21 43.886 38.942 48.095 13.004 2.64 18.697 7.337 18.875 15.572.163 7.567-1.7 8.961-24.023 17.963-10.952 4.417-26.656 11.258-34.898 15.202-25.503 12.205-37.867 14.897-46.791 10.187zm465.06-180.48c-33.12-5.99-44.18-20.72-62.28-83-22.18-76.29-33.93-86.88-83.11-74.96-73.99 17.94-139.6-41.38-120.84-109.24 3.427-12.392 15.106-42.362 21.713-55.718 11.778-23.808 28.934-15.152 28.564 14.413-.307 24.533 2.466 37.678 11.935 56.587 6.05 12.082 23.591 37.507 24.944 36.154 1.035-1.035-3.881-22.012-7.19-30.679-7.403-19.395-12.22-39.092-14.543-59.475-.626-5.5-1.347-10.337-1.6-10.748-6.068-9.836 5.186-55.118 20.816-83.752 1.652-3.025 4.308-8.846 5.904-12.936 7.193-18.43 15.73-18.765 37.156-1.453 22.545 18.215 25.221 36.31 8.803 59.52-38.501 54.426-38.078 64.059 4.656 105.9 59.343 58.107 107.85 89.985 124.12 81.572 13.196-6.824 21.906-48.57 13.754-65.921-15.513-33.021-4.344-52.985 39.548-70.683 32.737-13.201 41.74-23.66 53.369-62.001 2.085-6.875 4.006-13.062 4.269-13.75.378-.991-10.151-1.215-50.88-1.082-28.245.092-49.556.323-47.356.512 16.104 1.384 40.623 3.343 48.81 3.9 11.19.76 10.928.203 4.549 9.69-17.15 25.508-25.23 24.119-63.065-10.845l-3.71-3.42H750.02c-46.39 0-45.817.07-51.875-6.296l-3.364-3.534 1.111-11.335c1.799-18.352 7.461-26.577 20.841-30.275 5.734-1.584 22.784-7.294 47.832-16.018 37.056-12.905 68.187-11.39 90.36 4.398 5.008 3.567 4.4 2.327-3.778-7.69-16.252-19.91-16.905-20.382-34.275-24.785-13.238-3.356-12.943-3.387-42.886 4.579-66.895 17.797-93.459 18.584-128.98 3.821-22.785-9.47-26.317-11.204-24.319-11.943 2.17-.802 26.416-3.538 39.319-4.436 23.824-1.659 50.693-5.226 90.5-12.014 11-1.876 24.155-3.878 29.233-4.45 5.078-.57 11.603-2.007 14.5-3.192 9.664-3.953 20.761-3.276 28.767 1.756 3.575 2.247 8.707 4.633 11.404 5.303 15.1 3.75 49.99 16.81 57.393 21.483 5.11 3.226 7.372 6.393 18.677 26.161 70.398 123.09 73.915 207.78 12.479 300.47-34.499 52.046-46.167 79.339-50.949 119.17-2.256 18.79-10.883 27.949-29.004 30.793-9.353 1.468-39.99 1.129-49.246-.545zm3.39-122.45c22.634-2.253 28.337-4.631 36.538-15.234 5.082-6.57 8.532-8.605 19.818-11.69 70.141-19.167 104.33-97.96 66.6-153.5-2.417-3.558-1.935-4.83-6.588 17.413-10.826 51.75-26.382 78.437-61.011 104.67-37.575 28.465-68.121 42.422-101.77 46.5l-9.964 1.208 3.842 1.971c2.114 1.084 6.799 3.004 10.411 4.266 7.968 2.784 15.795 4.173 29.622 5.257 1.18.093 6.805-.296 12.5-.863zm108.31 105.19c.534-1.681.343-2.014-.884-1.543-4.155 1.594 10.82-25.565 19.017-34.49 8.742-9.52 17.228-21.363 22.147-30.914l4.27-8.29v-16.445c0-9.53-.5-18.311-1.187-20.882-1.435-5.367-.465-6.956 5.922-9.693 2.346-1.006 4.265-2.199 4.265-2.652s2.821-2.678 6.27-4.945c22.767-14.968 39.964-52.054 39.555-85.302-.06-4.809.48-8.857 1.503-11.28 6.832-16.193 8.82-54.16 3.518-67.22-5.084-12.522-6.817-19.508-7.535-30.366l-.62-9.367 2.405.737c19.562 5.998 25.386 15.158 36.913 58.06 10.014 37.268 15.11 50.147 27.15 68.612 11.545 17.705 10.997 24.777-3.449 44.466-3.573 4.872-9.906 15.647-14.072 23.946-18.393 36.642-68.15 93.974-111.54 128.52-10.868 8.654-35.637 15.312-33.648 9.047zm-610.45-234.81c-2.475-.796-11.408-1.877-19.85-2.402-18.228-1.134-26.003-2.78-36.122-7.648l-7.527-3.62 8-2.694c30.174-10.158 36.526-23.596 23.3-49.293-11.684-22.702-8.844-29.794 25.698-64.155 45.54-45.303 68.884-77.161 128.99-176.04 8.692-14.3 18.128-29.375 20.969-33.5 2.84-4.125 6.798-10.2 8.794-13.5 12.977-21.458 37.963-31.651 106.74-43.55 12.921-2.235 27.996-5.126 33.5-6.424 12.312-2.903 12.201-3.048 3.364 4.39-20.418 17.187-39.671 26.856-62.91 31.594-56.72 11.564-61.326 18.07-57.338 80.99 1.067 16.84-2.328 23.316-13.366 25.495-26.526 5.238-29.572 8.409-64.705 67.364-26.471 44.42-42.4 68.211-62.023 92.641-30.926 38.5-34.93 54.584-19.773 79.45 9.822 16.114 1.933 26.591-15.742 20.904zm387.36-15.404c-38.482-7.515-43.07-63.95-6.863-84.417 2.75-1.554 7.763-4.58 11.14-6.725 38.03-24.153 78.956-22.561 105.39 4.099 24.134 24.342 23.5 40.439-2.071 52.517-19.871 9.386-31.132 8.847-58.957-2.823-19.283-8.088-29.05-1.928-32.101 20.248-1.323 9.612-3.914 15.726-7.05 16.63-4.274 1.235-5.313 1.286-9.487.471zm497.58-25.88c-2.508-.956-7.233-3.552-10.5-5.769s-14.039-9.103-23.939-15.303c-22.292-13.96-32.677-21.629-47.823-35.312-34.024-30.738-54.064-37.559-82.677-28.142-22.16 7.293-28.19 2.666-39.152-30.044-1.659-4.95-6.762-16.875-11.34-26.5-10.66-22.408-17.443-44.045-17.49-55.79-.075-18.274-16.714-26.235-63.02-30.15-94.934-8.026-192.8-2.876-255.64 13.451-12.116 3.148-13.564 3.118-17.575-.361-1.806-1.567-4.527-3.152-6.046-3.522s-3.994-2.06-5.5-3.755c-12.54-14.16-47.28-17.58-84.2-8.28-19.055 4.797-20.66 4.625-26.031-2.79-5.193-7.17-4.173-11.508 5.012-21.299 2.58-2.75 6.737-7.925 9.237-11.5 23.807-34.032 72.814-33.699 107.71.732 23.784 23.464 37.291 27.735 65.376 20.67 9.726-2.445 15.098-4.605 40.192-16.16 22.325-10.278 35.172-13.936 78.874-22.454 39.714-7.741 43.707-7.32 56.022 5.899 20.465 21.969 44.318 29.81 82.632 27.165 19.634-1.356 20.186-1.2 35.904 10.1 15.387 11.062 21.608 11.754 32.567 3.624 1.958-1.453 2.001-1.31 2.024 6.72.05 16.902 7.608 21.304 24.423 14.226 10.784-4.539 17.351-3.015 28.553 6.624 7.51 6.463 14.56 9.831 20.602 9.844 13.312.028 18.413 12.721 13.914 34.623-4.122 20.07-1.334 30.225 12.972 47.243 3.864 4.596 12.511 15.621 19.216 24.5 25.835 34.21 37.008 46.353 55.295 60.095 16.985 12.764 20.918 27.107 8.513 31.045-1.107.351-2.013 1.059-2.013 1.571 0 1.196-.548 1.106-6.06-.996zm-641.74-63.44c.521-14.077 4.18-21.488 20.8-42.134 15.045-18.689 19.781-27.543 20.86-39l.754-8 1.465 5.5c8.422 31.627-8.479 72.607-37.481 90.883-6.878 4.334-6.828 4.39-6.398-7.25z"/><path fill="#E84545" d="M1276.4 1922.6c-1.723-.75-5.46-4.22-8.306-7.71-2.845-3.492-6.924-7.924-9.064-9.849-2.188-1.967-12.51-16.854-23.576-34-10.827-16.775-30.72-47.6-44.206-68.5s-26.43-40.925-28.764-44.5c-4.667-7.147-75.622-117.01-97.313-150.67-7.502-11.64-13.748-21.057-13.881-20.924-.58.576 12.028 27.82 21.793 47.09 22.373 44.154 43.678 78.88 98.774 161 46.55 69.381 64.407 96.902 63.153 97.332-5.632 1.93-18.955-8.505-29.606-23.187-3.67-5.058-15.435-18.083-26.327-29.145-27.926-28.362-32.911-36.388-37.445-60.292-3.453-18.2-12.558-29.005-37.677-44.708-21.71-13.572-26.176-16.769-41.786-29.909-61.941-52.14-83.29-67.224-119.79-84.64-16.275-7.766-16.277-7.768-12.86-17.455 5.068-14.362.942-21.319-15.49-26.116-3.024-.883-11.8-4.009-19.5-6.945-93.99-35.848-151.37-52.847-174.94-51.824-72.516 3.147-141.94 65.128-155.57 138.89-5.405 29.258-9.295 41.642-16.804 53.5-5.166 8.156-5.417 12.968-.911 17.473 7.509 7.509 14.385 1.628 26.076-22.303 9.44-19.323 13.693-23.162 26.727-24.12 4.358-.32 7.923-.543 7.923-.495s-2.069 2.246-4.597 4.885c-8.425 8.793-14.843 20.013-20.012 34.985-3.25 9.412-3.176 9.493 3.265 3.606 3.11-2.842 11.098-8.71 17.75-13.04 30.184-19.644 37.432-26.529 44.494-42.267 3.446-7.68 4.036-8.15 12.1-9.634 18.675-3.436 24.758-7.918 28.592-21.067 1.204-4.13 6.409-30.723 6.409-32.745 0-1.204 5.809 3.856 8.173 7.119 3.465 4.784 5.175 10.42 7.728 25.467 2.383 14.047 2.914 14.657 7.094 8.143 7.912-12.33 11.494-26.94 12.566-51.26.775-17.577.824-17.708 6.651-17.732 3.086-.013 4.729.892 9.732 5.356 13.328 11.892 14.284 11.221 16.412-11.52 3.164-33.816 1.608-31.358 12.82-20.253 29.654 29.372 20.329 70.221-29.2 127.9-37.94 44.186-72.983 64.846-132.35 78.027-32.557 7.228-51.39 13.792-66.891 23.316-8.188 5.03-7.243 5.037-9.85-.073-14.824-29.058-13.322-58.493 5.803-113.72 13.958-40.306 13.646-38.01 4.555-33.48-8.898 4.434-12.989 10.532-19.744 29.433-14.329 40.089-37.938 69.325-68.242 84.505-23.99 12.017-25.93 10.136-37.658-36.505-15.91-63.274-14.526-85.938 7.007-114.72 9.844-13.159 10.233-16.725 2.276-20.84-11.312-5.85-19.286-.01-25.918 18.982-29.361 84.082-113.65 129.87-215.46 117.04-17.054-2.149-15.807-1.334-15.014-9.802 7.856-83.935 79.023-149.74 159.46-147.45l10.442.297-3.33 3.788c-5.05 5.747-6.222 6.088-23.555 6.837-40.549 1.755-57.624 14.277-94.732 69.475-19.996 29.745-23.148 40.352-16.35 55.024 5.045 10.891 14.82 14.235 32.082 10.975 101.71-19.21 137.63-46.9 118.51-91.345-5.169-12.016-12.077-12.436-29-1.764-1.932 1.22-8.958 4.506-15.613 7.304s-20.83 9.223-31.5 14.278c-24.43 11.4-47.91 21.9-47.91 21.1 0-1.441 22.623-24.58 31.663-32.385 30.277-26.141 51.603-34.646 91.337-36.43 17.4-.781 24.376-3.271 63.323-22.605l24.823-12.322-10.323-2.72c-52.12-13.8-79.68-45-101.36-114.9-12.47-40.2-7.15-46.6 33.54-40.5 45.803 6.836 88.52 26.21 131.74 59.753a4271 4271 0 0 0 12.043 9.328c.159.113 1.409 4.425 2.78 9.584 10.016 37.708 25.044 45.189 69.432 34.563 28.373-6.792 39.902-7.857 48.89-4.516 3.715 1.382 3.551.753-2.542-9.783-28.766-49.74-35.777-110.67-20.864-181.33.864-4.094 1.685-7.558 1.825-7.698s4.065 1.314 8.723 3.23c53.626 22.062 64.332 3.219 48.626-85.589-7.358-41.607-8.129-58.252-3.438-74.256 1.5-5.118 1.333-5.68 5.286 17.834 4.326 25.738 3.673 23.892 7.727 21.833 13.748-6.981 20.034-17.894 28.46-49.41l2.808-10.5.708 33c1.796 83.685-3.247 123.71-20.664 164-8.791 20.34-9.637 18.391 21.383 49.273 48.593 48.376 60.368 73.662 54.16 116.3-2.463 16.92-1.11 18.46 23.173 26.354 9.483 3.083 25.34 8.903 35.24 12.934 75.817 30.872 83.891 33.83 108.35 39.681 21.578 5.163 33.805 12.448 56.037 33.388 20.587 19.39 30.355 26.355 42.73 30.47 6.953 2.31 17.385 4.158 17.385 3.078 0-1.625-47.717-85.596-68.9-121.25-56.419-94.953-101.13-194.55-123.11-274.23-2.276-8.25-4.532-16.238-5.014-17.75-1.282-4.026.176-3.38 4.833 2.142 6.993 8.295 11.883 17.042 20.209 36.157 16.95 38.914 24.44 46.015 30.565 28.98 4.283-11.91 32.665-23.029 58.789-23.029 18.193 0 17.805 1.693-2.4 10.463-34.014 14.764-42.015 35.327-26.667 68.537 25.422 55.01 53.284 93.71 81.178 112.75 13.836 9.447 13.842 9.458 11.478 21.246-7.473 37.265 3.009 64.664 44.633 116.67 20.805 25.994 25 32.03 37.407 53.832 38.453 67.566 77.775 127.69 120.13 183.66 7.35 9.715 19.404 25.69 26.787 35.5 8.297 11.025 17.251 21.57 23.445 27.61 5.513 5.376 10.832 11 11.82 12.5 6.41 9.721-5.299 24.364-15.82 19.786zm-822.09-205.4c1.756-1.835 7.096-6.46 11.867-10.278 16.839-13.476 16.261-23.157-2.415-40.448-13.053-12.084-21.217-12.187-27.12-.34-4.761 9.553-3.042 12.317 7.032 11.3 13.659-1.376 16.545 13.553 4.105 21.24-6.662 4.118-8.319 15.37-3.629 24.64l3.148 6.222 1.91-4.5c1.051-2.475 3.347-6.001 5.103-7.836zm47.44-44.7c5.617-6.028 4.669-9.6-6.104-23.017-10.085-12.559-6.356-18.626 5.526-8.99 17.43 14.131 22.04 4.729 10.23-20.867-11.89-25.7-11.44-29.7 2.6-22.6 9.028 4.557 10.328 3.386 8.929-8.042-3.22-26.3-27.218-42.087-30.02-19.749-1.238 9.872-2.773 14.854-12.068 39.174-8.986 23.513-13.387 38.994-14.406 50.674l-.693 7.943h2.882c1.586 0 7.606 2.268 13.38 5.041 12.15 5.835 14.695 5.897 19.746.476zm56.126-53.43c6.222-24.811 18.292-39.71 57.276-70.7 12.291-9.77 25.757-21.008 29.923-24.971l7.576-7.206-4.576-.602c-7.957-1.046-42.017 1.094-63.576 3.995-18.676 2.514-64.571 12.345-66.729 14.295-.401.363 1.692 2.55 4.652 4.862 14.517 11.338 22.519 28.724 27.036 58.739 1.606 10.674 5.65 30.759 6.09 30.25.12-.137 1.167-4.036 2.327-8.663zm-129.67-94.734c3.023-1.522 7.789-8.914 7.789-12.081 0-3.158-2.954-6.083-9.15-9.059-6.467-3.107-29.303-21.655-37.008-30.06-12.328-13.447-16.724-23.885-17.766-42.185-.977-17.159-6.667-23.83-21.856-25.63-14.59-1.728-14.414 3.482 1.152 34.302 33.452 66.235 58.56 93.916 76.838 84.712zm281.77-27.421c13.155-2.134 22.32-8.474 29.457-20.375 5.342-8.908 4.796-9.218-6.31-3.575-10.688 5.43-11.287 5.643-10.622 3.766 3.169-8.948 5.107-43.197 3.006-53.114-3.117-14.712-63.476-77.598-69.365-72.269-1.154 1.044-3.578 1.633-6.725 1.634-12.255 0-18.372 9.106-18.452 27.458-.072 16.415-2.792 26.862-8.933 34.311-6.056 7.347-2.034 15.722 8.667 18.051a5746 5746 0 0 1 21.648 4.826l16.851 3.781-2.547 2.191c-2.51 2.16-10.288 4.38-15.34 4.38-8.518 0-18.001 6.48-14.747 10.076 6.24 6.896 26.806 13.113 47.77 14.442l10.839.687-2.698 2.816c-1.766 1.843-4.931 3.42-9.156 4.564-10.576 2.863-19.324 10.516-19.324 16.904 0 .97 39.519.493 45.98-.555zm-105.94 175.46c-5.187-16.794-.97-26.681 16.028-37.585 6.276-4.026 11.526-9.555 15.482-16.306 4.593-7.838 18.44-41.766 18.445-45.195.006-4.188.711-4.507 10.34-4.675 12.187-.213 15.384-2.126 32.165-19.253 16.688-17.031 34.508-28.706 38.192-25.023 3.372 3.372-27.954 41.515-64.175 78.142-35.163 35.557-48.141 50.799-58.555 68.775-5.413 9.342-5.383 9.338-7.922 1.12zm526.46-294.2c-46.792-6.753-81.362-38.7-115.88-107.09-3.664-7.26-2.845-6.622 4.5 3.5 60.56 83.465 128.82 111.99 200.38 83.752 14.846-5.86 50.415-26.084 56.403-32.072 1.01-1.01-3.485-4.448-6.57-5.027-2.907-.545-4.594.1-11.781 4.508-40.203 24.654-76.235 21.793-126.23-10.024-5.22-3.322-11.02-6.288-12.89-6.591-4.01-.651-4.52-1.228-6.892-7.795-7.307-20.236-21.078-31.873-58.118-49.112-25.991-12.096-40.956-22.634-33.996-23.94 14.785-2.774 28.813.831 57.76 14.844 31.446 15.223 39.44 17.708 56.976 17.708 11.609 0 12.142-.3 8.423-4.72-3.424-4.069-10.45-7.583-22.583-11.296-12.837-3.928-16.921-5.949-22.6-11.183-6.288-5.796-6.055-5.842 11.414-2.25 41.3 8.495 53.13 15.843 72.37 44.949 32.276 48.825 49.067 50.166 146.56 11.698 11.842-4.672 11.784-4.955 1.708 8.405-44.491 58.99-125.62 92.32-198.95 81.737zm-229.89-107.4c-7.227-7.986-13.008-19.823-20.442-41.854-9.735-28.853-24.651-53.985-32.048-54.001-.339 0-.482 7.424-.32 16.5.164 9.076-.07 16.501-.519 16.501-4.134 0-13.355-22.303-35.348-85.5-15.905-45.701-30.977-57.116-67.428-51.066-4.4.73-8.076 1.268-8.169 1.195s3.687-3.282 8.4-7.13c25.573-20.888 39.917-48.65 43.14-83.499 2.02-21.855 2.114-33.999.26-34.01-.897-.005-3.606-1.58-6.021-3.5-8.226-6.539-9.542-4.08-12.578 23.51-4.809 43.683-21.432 61.215-64.921 68.465-41.968 6.997-51.931 16.834-48.468 47.856 2.444 21.893-15.801 51.763-50.642 82.91-27.471 24.557-35.692 26.833-56.944 15.762-7.399-3.854-15.838-7.62-18.754-8.368l-5.302-1.36 5.5-.75c26.94-3.668 50.139-19.153 67.434-45.014 14.283-21.357 39.549-72.644 39.559-80.3.042-32.338-84.74-41.513-112.75-12.202-2.892 3.026-8.743 9.757-13.002 14.959-41.178 50.284-93.846 57.47-178.24 24.322-65.646-25.783-109.89-39.394-160.48-49.368-53.201-10.49-92.872-27.18-114.75-48.278-2.602-2.51-6.08-5.26-7.73-6.113-36.773-19.08-49.982-101.21-38.06-236.6 4.685-53.22 6.055-69.32 7.043-82.76 2.523-34.36 17.937-67.46 61.457-131.98 7.7-11.42 16.43-25.26 19.4-30.76s7.019-12.876 9-16.39 4.634-8.24 5.898-10.5c7.341-13.129 13.838-14.228 28.355-4.796 12.014 7.806 16.544 8.946 22.763 5.73 3.741-1.935 3.774-.848-.32-10.782-32.186-78.085-14.174-144.19 56.646-207.9 4.808-4.325 8.48-7.864 8.16-7.864s3.103-3.938 7.606-8.75c22.373-23.907 33.842-45.181 39.49-73.25 4.226-20.999 15.928-32.778 36.37-36.606 14.505-2.716 31.663-6.513 40.132-8.88 72.607-20.296 111.36-36.964 175.89-75.65 48.1-28.836 72.73-25.325 99.007 14.114 8.246 12.375 8.243 12.75-.054 6.027-31.8-25.755-54.88-23.99-108.85 8.326-60.97 36.506-119.72 60.144-171.87 69.144-32.4 5.59-43.02 13.786-53.11 40.985-10.901 29.389-24.01 48.023-59.17 84.11-38.38 39.396-52.935 66.797-56.822 106.98-2.875 29.717 9.333 77.316 26.276 102.45 9.691 14.377-7.466 24.863-27.134 16.585-29.79-12.538-49.967-3.457-75.057 33.78-46.156 68.48-67.794 127.8-68.273 187.14-.398 49.34 2.008 176.48 3.463 183 10.897 48.82 38.028 69.44 149.69 113.75 48.254 19.152 201.1 70.375 221.83 74.34 29.414 5.629 53.172-4.875 75.99-33.593 15.188-19.116 34.404-35.393 46.684-39.546 2.748-.93 5.221-2.035 5.496-2.456 6.956-10.657 49.84-6.236 81.067 8.357 12.301 5.748 20.715 7.644 33.921 7.644h11.53l8.73-4.455c44.06-22.44 81.75-72.49 81.75-108.5 0-11.38-1.53-10.33 31.66-21.6 35.91-12.2 53.71-18.56 54.34-19.41.274-.376 5.05-3.012 10.612-5.859 11.86-6.07 24.15-14.05 35.58-23.13 14.98-11.89 15.78-12.95 39.81-52.53 20.212-33.293 32.597-42.532 64.5-48.117 27.797-4.865 43.255-12.897 49.762-25.854 6.52-12.982 9.081-22.41 8.931-32.873-.139-9.739-.1-9.91 2.833-12.65 1.636-1.528 2.974-3.182 2.974-3.674 0-1.36 6.585-7.317 15.5-14.021 28.304-21.287 42.667-41.696 60.018-85.28 4.93-12.382 15.334-34.302 20.84-43.903 2.397-4.178 5.113-9.9 6.037-12.716 1.038-3.166 3.096-6.464 5.392-8.643 2.042-1.938 4.9-4.922 6.348-6.631 3.93-4.633 6.753-4.146 13.865 2.393 3.29 3.025 6.345 5.5 6.788 5.5s.648 4.162.456 9.25c-.332 8.777-.136 9.837 3.824 20.75 10.81 29.786 10.64 36.409-1.541 59.399-10.169 19.193-11.332 28.542-5.115 41.12 1.973 3.993 3.588 7.72 3.588 8.282 0 3.63-12.94 10.327-56.5 29.24-14.3 6.209-26.15 11.403-26.336 11.543-.967.732 3.55 7.86 6.32 9.973 4.084 3.114 11.758 3.284 20.016.443 18.109-6.23 21.488-2 17.479 21.884-7.958 47.414-30.673 66.377-75.46 62.995-5.488-.414-10.122-.61-10.298-.434-.99.99 1.57 6.336 5.393 11.26 5.684 7.319 5.591 7.918-1.365 8.77-13.061 1.6-20.072 5.097-40.524 20.216-15.55 11.495-20.86 14.358-34.024 18.343-27.164 8.224-57.591 18.84-86.91 30.322-9.188 3.598-21.788 7.737-28 9.197-40.76 9.57-48.79 14.25-48.79 28.42 0 16.083 17.464 29.892 57.5 45.468 23.595 9.18 24.556 9.669 31.249 15.93 5.508 5.153 15.252 19.119 15.252 21.861 0 .43-1.712-.297-3.803-1.618-20.39-12.872-29.883-14.929-70.21-15.217-28.678-.205-40.157-.94-47.237-3.026-3.463-1.02-1.76 2.648 2 4.31 48.74 21.538 54.425 30.956 35.824 59.345-21.03 32.097-21.595 47.717-3.258 90.02 14.21 32.781 55.802 138.05 57.267 144.94 4.006 18.847 1.299 25-6.978 15.853zm-878.92-518.66c-.25-.956-.446.062-.435 2.262s.216 2.982.455 1.738.23-3.044-.02-4m1.027-40.006c-.228-1.503-.41-.032-.404 3.268s.192 4.53.415 2.732c.222-1.797.218-4.497-.01-6m-.008-38.48c-.238-1.238-.433-.225-.433 2.25s.195 3.487.433 2.25.239-3.263 0-4.5m1058.7 419.75c-27.307-6.323-45.99-17.959-87.432-54.456-10.725-9.445-24.78-21.276-31.232-26.292-14.975-11.639-14.677-13.398 1.733-10.216 2.816.546 3.321.12 8.235-6.957 20.939-30.154 38.42-22.139 80.698 36.998 28.203 39.45 53.042 60.393 71.628 60.393 4.137 0 1.669 1.754-3.31 2.352-11.712 1.407-29.926.584-40.318-1.823zm-381.82-121.29c-22.624-7.688-43.214-8.528-64.12-2.615-35.196 9.953-76.038 6.055-118.46-11.306-16.73-6.847-24.266-9.126-47.306-14.307-41.463-9.325-61.503-17.815-75.045-31.796l-3.85-3.976 7.003-4.161c28.098-16.693 50.128-15.505 72.698 3.918 25.898 22.288 81.221 30.81 139 21.41 17.342-2.822 45.88-12.229 47.333-15.603.184-.425.789-.773 1.345-.773 1.832 0 12.976-11.421 15.005-15.378 3.918-7.642 3.489-12.422-2.703-30.122-3.08-8.8-5.647-16.562-5.706-17.25s-.509-1.25-1-1.25c-.49 0-.66-.376-.375-.836.655-1.06-11.588-23.579-19.023-34.989-16.09-24.72-43.69-43.3-86.05-57.95-48.05-16.6-76.3-49.64-76.75-89.73-.178-15.764-1.5-19.274-12.433-33-12.205-15.322-13.648-21.609-8.526-37.122 5.039-15.259 2.12-35.679-7.377-51.617-10.59-17.78-17.68-32.91-18.86-40.26-2.266-14.114.36-28.298 7.387-39.892 1.964-3.24 5.276-10.796 7.36-16.79 9.12-26.229 32.487-78.268 37.311-83.092.738-.738 2.713-4.465 4.39-8.283 12.713-28.953 38.055-61.321 67.193-85.82 12.66-10.644 12.906-10.81 10.55-7.129l-1.915 2.993 2.095-1.493c1.152-.82 3.934-2.993 6.182-4.827s4.087-3.139 4.087-2.9-2.556 4.664-5.681 9.834c-7.174 11.869-18.551 35.518-29.779 61.9-23.599 55.45-40.837 84.739-64.151 109-29.823 31.034-28.714 56.96 4.282 100.13 34.472 45.1 100.44 76.523 142.65 67.948 12.686-2.577 15.222-2.154 16.199 2.7 2.217 11.014 5.868 19.021 15.373 33.721 9.117 14.1 10.628 20.556 6.648 28.411-7.445 14.691-5.407 20.712 8.788 25.965 3.208 1.188 8.696 3.886 12.196 5.996 3.853 2.325 10.82 5.12 17.667 7.09 13.56 3.903 24.268 8.8 28.163 12.88l2.858 2.995-2.858 1.468c-15.46 7.937-26.045 4.875-91.86-26.574-13.2-6.307-27.6-12.894-32-14.636-4.572-1.81-11.213-5.578-15.5-8.794-22.322-16.748-33.52 3.565-19.943 36.18 7.7 18.498 41.959 42.79 83.944 59.523 46.368 18.48 67.389 16.369 84.177-8.454 15.376-22.734 25.555-24.54 39.164-6.952 3.848 4.974 4.385 5.292 12.59 7.438 12.93 3.38 44.06 15.04 44.06 16.51 0 6.272-17.954 15.737-38 20.034-20.487 4.392-27.39 8.552-44.117 26.584-22.35 24.09-30.88 32.06-38.88 36.33-12.81 6.833-11.518 12.851 4.363 20.343 27.518 12.98 29.434 23.054 11.164 58.68-5.24 10.22-9.53 19.36-9.53 20.31 0 .952-2.587 4.21-5.75 7.24l-5.75 5.508-9.919-3.37zm311.68-24.972c-2.741-1.863 27.745-27.134 51.353-42.567 37.148-24.284 71.998-36.588 113.89-40.208 57.432-4.963 83.973-20.345 105.29-61.019 11.615-22.168 25.65-29.667 66.404-35.48 42.52-6.066 50.843-12.372 50.762-38.462-.14-45.223-3.062-59.436-21.992-106.99-9.26-23.265-13.787-37.148-15.979-49.008-2.47-13.364-7.747-17.867-26.323-22.461-20.925-5.175-36.009-13.058-70.164-36.669-26.636-18.413-40.635-26.518-56.244-32.563-5.108-1.978-5.539-4.446-1.75-10.022 3.175-4.671 3.198-4.569-1.25-5.372-11.016-1.988-11.574-6.93-1.966-17.408 17.11-18.66 16.51-30.358-2.79-54.506-24.666-30.859-37.256-59.122-40.537-91-1.434-13.933-21.174-69.014-26.7-74.5-.277-.275-.21 2.65.148 6.5l.652 7-5.505-6c-10.243-11.164-13.788-19.884-16.03-39.433-.848-7.387-2.13-14.138-2.847-15-.6-.87-3.6-5.86-6.6-11.08-29.1-51.51-36.3-56.42-100-69.03-49.72-9.836-77.37-20.457-110.61-42.498-8.53-5.652-16.72-10.737-18.2-11.299s-5.84-2.247-9.69-3.746c-25.44-9.9-50.48-10.046-79.61-.465-13.115 4.315-26.237 6.952-52.54 10.561-21.667 2.973-34.346 6.045-46.124 11.175-10.816 4.712-18.2 5.18-23.215 1.472-1.734-1.282-3.736-2.106-4.45-1.832-.873.335-1.894-1.47-3.118-5.513l-1.82-6.01 3.936-3.421c8.94-7.764 22.47-12.755 48.47-17.877 7.41-1.46 15.27-3.028 17.47-3.484 2.2-.457 10.08-2.701 17.5-4.988 48.46-14.925 90.95-19.175 113.98-11.401 4.138 1.397 8.198 2.69 9.023 2.872 4.384.972 12.655 4.788 45 20.767 60.873 30.072 88.87 41.006 123.5 48.23 65.16 13.594 85.347 40.138 136.51 179.49 26.145 71.218 37.929 97.153 58.836 129.5 19.18 29.675 16.602 48.526-9.167 67-7.04 5.048-7.22 4.618 3.008 7.261 12.781 3.304 22.222 8.322 47.817 25.415 23.664 15.803 28.8 18.465 52.785 27.364 57.08 21.176 87.304 63.328 102.24 142.58 19.927 105.75 13.038 122.22-53.1 126.92-40.77 2.896-62.486 15.082-80.12 44.961-18.384 31.15-43.505 46.487-80.303 49.026-48.167 3.325-73.898 11.371-155 48.468-30.569 13.983-40.864 17.375-44.739 14.743zm-682.61-34.34c-6.98-3.683-11.929-14.256-15.662-33.46-2.456-12.634-4.104-17.232-8.502-23.723-6.145-9.07-5.961-8.918-9.937-8.172-3.981.747-4.02.701-2.576-3.094.891-2.344.605-3.13-2.311-6.358-9.039-10.005-11.158-19.677-10.326-47.125.92-30.36-.283-35.218-11.8-47.67-7.735-8.361-11.526-14.228-19.581-30.302-7.7-15.364-12.07-21.886-19.431-29-6.73-6.504-6.812-8.182-1.116-23l3.267-8.5-2.388-3.132c-2.644-3.468-1.933-4.356 3.501-4.38 2.088-.009 3.06-.824 4.474-3.75.993-2.056 8.655-13.639 17.027-25.739 10.471-15.135 15.95-24.028 17.555-28.5 2.656-7.396 11.14-24.825 14.121-29.012 1.096-1.538 1.992-3.454 1.992-4.259 0-31.21 36.598-35.7 38.529-4.727.36 5.774 1.5 13.648 2.534 17.498 3.82 14.22 3.59 22.576-1.654 60-10.22 72.942-5.91 95.697 22.714 119.91 12.556 10.623 16.557 19.285 27.467 59.471 8.739 32.188 18.21 43.886 38.942 48.095 13.004 2.64 18.697 7.337 18.875 15.572.163 7.568-1.7 8.962-24.023 17.963-10.952 4.417-26.656 11.258-34.898 15.202-25.503 12.205-37.867 14.897-46.791 10.187zm465.06-180.48c-33.12-5.99-44.18-20.72-62.28-83-22.18-76.29-33.93-86.88-83.11-74.96-73.99 17.94-139.6-41.38-120.84-109.24 3.427-12.392 15.106-42.362 21.713-55.718 11.778-23.808 28.934-15.152 28.564 14.413-.424 33.896 8.105 57.458 31.45 86.882 6.054 7.631 6.33 7.476 4.377-2.461-.847-4.309-1.771-9.453-2.054-11.432s-1.384-5.63-2.449-8.112c-5.835-13.614-13.38-41.865-14.632-54.79-.346-3.575-1.301-9.636-2.122-13.469-2.028-9.467-1.948-28.331.164-38.73 2.478-12.196 4.872-18.152 18.812-46.801 2.81-5.775 5.138-10.725 5.173-11 2.05-16.117 13.538-22.951 25.983-15.457 33.46 20.149 40.322 42.013 21.523 68.587-38.501 54.426-38.078 64.059 4.656 105.9 59.343 58.107 107.85 89.985 124.12 81.572 13.196-6.824 21.906-48.57 13.754-65.921-15.438-32.86-4.15-53.336 38.45-69.749 33.5-12.908 42.096-22.888 54.597-63.398 5.198-16.845 13.36-14.506-50.666-14.518-143.93-.027-140.95.002-144.26-1.408-5.77-2.457-10.17-9.069-9.143-13.742.364-1.657.784-6.123.933-9.923.523-13.342 7.92-22.974 20.263-26.385 5.734-1.584 22.784-7.294 47.832-16.018 37.056-12.905 68.187-11.39 90.36 4.398 5.009 3.567 4.4 2.327-3.78-7.69-17.25-21.125-18.198-21.775-38.347-26.286l-8.709-1.95-28.223 7.524c-66.91 17.85-101.83 19.17-128.85 4.9-2.475-1.307-9.586-4.467-15.8-7.02-6.217-2.555-11.13-4.816-10.92-5.026.589-.59 25.303-3.262 44.72-4.835 9.625-.78 18.85-1.648 20.5-1.928s12.225-1.88 23.5-3.557 31.227-4.852 44.34-7.058c13.11-2.205 25.935-4.016 28.5-4.023 2.563-.007 8.226-1.15 12.583-2.542 14.7-4.695 18.978-4.362 29.37 2.285 2.953 1.89 6.792 3.616 8.529 3.836 8.942 1.132 51.362 16.685 59.475 21.806 5.11 3.227 7.372 6.393 18.677 26.161 70.398 123.09 73.915 207.78 12.479 300.47-34.499 52.046-46.167 79.34-50.949 119.17-2.256 18.79-10.883 27.95-29.004 30.793-9.353 1.468-39.99 1.129-49.246-.545zm14.25-123.9c15.901-2.737 18.452-3.937 24.512-11.532 7.076-8.867 7.853-9.36 21.483-13.617 40.215-12.559 70.604-42.553 80.08-79.039 2.498-9.623 2.874-36.713.54-39.046-.33-.34-.61-1.42-.61-2.42 0-1.628-2.776-10.537-6.207-19.919-.715-1.955-3.086-6.607-5.268-10.338-4.742-8.109-4.145-9.058-9.026 14.353-10.777 51.687-26.364 78.432-61 104.67-37.574 28.465-68.12 42.422-101.77 46.5l-9.962 1.207 3.842 1.972c16.998 8.72 39.64 11.295 63.39 7.208zm97.368 106.97c.389-1.012.209-2.128-.405-2.507-2.295-1.42 11.87-26.586 19.537-34.712 9.045-9.586 17.873-21.888 22.23-30.978l3.458-7.214-.065-17.896c-.036-9.842-.515-19.08-1.066-20.528-1.37-3.603-.533-5.202 3.77-7.2 2.02-.938 4.993-3.027 6.605-4.642s4.987-4.104 7.5-5.533c20.298-11.54 36.63-45.848 37.635-79.05.315-10.444.832-14.286 2.419-18 5.464-12.79 8.93-53.786 5.108-60.417-7.65-13.27-13.445-45.967-7.844-44.254 19.378 5.927 25.258 15.207 36.76 58.01 10.013 37.27 15.11 50.148 27.15 68.613 11.544 17.705 10.996 24.777-3.449 44.466-3.574 4.871-9.906 15.647-14.072 23.946-18.393 36.642-68.15 93.974-111.54 128.52-10.44 8.313-36.055 15.431-33.73 9.374zm-610.37-235.14c-2.475-.796-11.408-1.878-19.85-2.403-18.228-1.133-26.003-2.78-36.122-7.647l-7.527-3.621 8-2.693c30.174-10.158 36.526-23.596 23.3-49.293-11.684-22.702-8.844-29.794 25.698-64.155 29.705-29.55 51.567-55.785 72.53-87.042 2.95-4.4 5.753-8.45 6.227-9 2.613-3.034 25.093-38.797 48.834-77.693 16.495-27.024 23.19-37.486 27.028-42.232.478-.592 3.181-4.603 6.007-8.914 8.25-12.585 20.836-21.005 38.375-25.674 4.4-1.171 9.402-2.765 11.114-3.54 6.126-2.777 26.88-7.504 52.662-11.996 14.415-2.511 30.713-5.628 36.217-6.925 12.312-2.904 12.2-3.049 3.364 4.39-20.418 17.187-39.671 26.856-62.91 31.594-56.72 11.564-61.326 18.07-57.338 80.99 1.067 16.839-2.328 23.316-13.366 25.495-26.526 5.238-29.572 8.408-64.705 67.364-26.471 44.419-42.4 68.21-62.023 92.64-30.926 38.5-34.93 54.585-19.773 79.45 9.822 16.115 1.932 26.592-15.742 20.905zm387.36-15.404c-35.944-7.02-42.792-59.837-10.537-81.278 17.77-11.813 22.315-14.498 30.47-18 35.705-15.333 66.572-11.125 89.732 12.235 24.134 24.342 23.5 40.439-2.071 52.517-19.871 9.386-31.132 8.847-58.957-2.823-19.283-8.087-29.05-1.927-32.101 20.248-1.323 9.612-3.914 15.726-7.05 16.631-4.274 1.234-5.313 1.286-9.486.47zm496.59-26.355c-1.91-.657-6.17-3.024-9.464-5.26s-14.09-9.137-23.99-15.337c-22.292-13.961-32.677-21.63-47.823-35.312-34.024-30.738-54.064-37.56-82.677-28.142-18.267 6.012-27.387 2.215-32.884-13.688-7.782-22.518-10.71-29.822-15.985-39.885-6.204-11.835-11.65-24.533-12.476-29.088-.26-1.43-1.388-5.927-2.508-9.992-1.16-4.07-2.61-11.22-3.27-15.9-3.82-27.39-19.55-32.73-108.92-36.99-72.991-3.478-159.98 3.336-210.64 16.499-12.133 3.152-13.569 3.12-17.574-.394-1.807-1.586-4.979-3.59-7.049-4.455s-4.04-2.29-4.376-3.166c-4.845-12.626-49.128-16.777-84.36-7.908-19.679 4.954-22.692 4.37-27.074-5.252-2.788-6.12-1.926-9.11 4.953-17.176 3.124-3.663 7.752-9.585 10.284-13.16 24.11-34.044 72.857-33.713 107.77.73 28.804 28.417 50.735 31.19 90.622 11.457 32.138-15.9 44.618-19.81 93.821-29.401 39.714-7.741 43.707-7.32 56.022 5.899 20.465 21.969 44.318 29.81 82.632 27.165 19.634-1.356 20.186-1.2 35.904 10.1 15.387 11.062 21.608 11.754 32.567 3.623 1.958-1.452 2-1.31 2.024 6.721.049 16.902 7.607 21.304 24.423 14.226 10.784-4.539 17.35-3.015 28.553 6.624 7.51 6.463 14.56 9.831 20.602 9.844 13.312.028 18.413 12.721 13.914 34.623-4.123 20.069-1.334 30.225 12.972 47.243 3.863 4.596 12.51 15.621 19.216 24.5 25.835 34.209 37.008 46.353 55.295 60.095 15.105 11.351 18.494 17.969 13.41 26.193-3.3 5.342-7.984 7.003-13.955 4.95zm-640.56-57.17c-2.056-13.711 3.509-26.428 20.947-47.876 14.56-17.907 18.583-24.835 20.602-35.482 1.433-7.553 1.605-7.36 2.946 3.296 4.004 31.807-12.357 64.791-41.123 82.906l-2.69 1.695zm291-1.256c-6.13-3.38-11.583-7.5-25.084-18.95l-10.288-8.725 3.716-.275c4.57-.34 64.087 4.314 64.842 5.069.646.647-8.367 14.2-12.806 19.257-6.236 7.101-12.162 8.155-20.38 3.623z"/><path fill="#2A1518" d="M1276.4 1922.6c-1.723-.75-5.46-4.22-8.306-7.71-2.845-3.492-6.924-7.924-9.064-9.849-2.188-1.967-12.51-16.854-23.576-34-10.827-16.775-30.72-47.6-44.206-68.5s-26.43-40.925-28.764-44.5c-4.667-7.147-75.622-117.01-97.313-150.67-7.502-11.64-13.748-21.057-13.881-20.924-.58.576 12.028 27.82 21.793 47.09 22.373 44.154 43.678 78.88 98.774 161 46.55 69.381 64.407 96.902 63.153 97.332-5.632 1.93-18.955-8.505-29.606-23.187-3.67-5.058-15.435-18.083-26.327-29.145-27.926-28.362-32.911-36.388-37.445-60.292-3.453-18.2-12.558-29.005-37.677-44.708-21.71-13.572-26.176-16.769-41.786-29.909-61.941-52.14-83.29-67.224-119.79-84.64-16.275-7.766-16.277-7.768-12.86-17.455 5.068-14.362.942-21.319-15.49-26.116-3.024-.883-11.8-4.009-19.5-6.945-93.99-35.848-151.37-52.847-174.94-51.824-72.516 3.147-141.94 65.128-155.57 138.89-5.405 29.258-9.295 41.642-16.804 53.5-5.166 8.156-5.417 12.968-.911 17.473 7.509 7.509 14.385 1.628 26.076-22.303 9.44-19.323 13.693-23.162 26.727-24.12 4.358-.32 7.923-.543 7.923-.495s-2.069 2.246-4.597 4.885c-8.425 8.793-14.843 20.013-20.012 34.985-3.25 9.412-3.176 9.493 3.265 3.606 3.11-2.842 11.098-8.71 17.75-13.04 30.184-19.644 37.432-26.529 44.494-42.267 3.446-7.68 4.036-8.15 12.1-9.634 18.675-3.436 24.758-7.918 28.592-21.067 1.204-4.13 6.409-30.723 6.409-32.745 0-1.204 5.809 3.856 8.173 7.119 3.465 4.784 5.175 10.42 7.728 25.467 2.383 14.047 2.914 14.657 7.094 8.143 7.912-12.33 11.494-26.94 12.566-51.26.775-17.577.824-17.708 6.651-17.732 3.086-.013 4.729.892 9.732 5.356 13.328 11.892 14.284 11.221 16.412-11.52 3.164-33.816 1.608-31.358 12.82-20.253 29.654 29.372 20.329 70.221-29.2 127.9-37.94 44.186-72.983 64.846-132.35 78.027-32.557 7.228-51.39 13.792-66.891 23.316-8.188 5.03-7.243 5.037-9.85-.073-14.824-29.058-13.322-58.493 5.803-113.72 13.958-40.306 13.646-38.01 4.555-33.48-8.898 4.434-12.989 10.532-19.744 29.433-14.329 40.089-37.938 69.325-68.242 84.505-23.99 12.017-25.93 10.136-37.658-36.505-15.91-63.274-14.526-85.938 7.007-114.72 9.844-13.159 10.233-16.725 2.276-20.84-11.312-5.85-19.286-.01-25.918 18.982-29.361 84.082-113.65 129.87-215.46 117.04-17.054-2.149-15.807-1.334-15.014-9.802 7.856-83.935 79.023-149.74 159.46-147.45l10.442.297-3.33 3.788c-5.05 5.747-6.222 6.088-23.555 6.837-40.549 1.755-57.624 14.277-94.732 69.475-19.996 29.745-23.148 40.352-16.35 55.024 5.045 10.891 14.82 14.235 32.082 10.975 101.71-19.21 137.63-46.9 118.51-91.345-5.169-12.016-12.077-12.436-29-1.764-1.932 1.22-8.958 4.506-15.613 7.304s-20.83 9.223-31.5 14.278c-24.43 11.4-47.91 21.9-47.91 21.1 0-1.441 22.623-24.58 31.663-32.385 30.277-26.141 51.603-34.646 91.337-36.43 17.4-.781 24.376-3.271 63.323-22.605l24.823-12.322-10.323-2.72c-52.12-13.8-79.68-45-101.36-114.9-12.47-40.2-7.15-46.6 33.54-40.5 45.803 6.836 88.52 26.21 131.74 59.753a4271 4271 0 0 0 12.043 9.328c.159.113 1.409 4.425 2.78 9.584 10.016 37.708 25.044 45.189 69.432 34.563 28.373-6.792 39.902-7.857 48.89-4.516 3.715 1.382 3.551.753-2.542-9.783-28.766-49.74-35.777-110.67-20.864-181.33.864-4.094 1.685-7.558 1.825-7.698s4.065 1.314 8.723 3.23c53.626 22.062 64.332 3.219 48.626-85.589-7.358-41.607-8.129-58.252-3.438-74.256 1.5-5.118 1.333-5.68 5.286 17.834 4.326 25.738 3.673 23.892 7.727 21.833 13.748-6.981 20.034-17.894 28.46-49.41l2.808-10.5.708 33c1.796 83.685-3.247 123.71-20.664 164-8.791 20.34-9.637 18.391 21.383 49.273 48.593 48.376 60.368 73.662 54.16 116.3-2.463 16.92-1.11 18.46 23.173 26.354 9.483 3.083 25.34 8.903 35.24 12.934 75.817 30.872 83.891 33.83 108.35 39.681 21.578 5.163 33.805 12.448 56.037 33.388 20.587 19.39 30.355 26.355 42.73 30.47 6.953 2.31 17.385 4.158 17.385 3.078 0-1.625-47.717-85.596-68.9-121.25-56.419-94.953-101.13-194.55-123.11-274.23-2.276-8.25-4.532-16.238-5.014-17.75-1.282-4.026.176-3.38 4.833 2.142 6.993 8.295 11.883 17.042 20.209 36.157 16.95 38.914 24.44 46.015 30.565 28.98 4.283-11.91 32.665-23.029 58.789-23.029 18.193 0 17.805 1.693-2.4 10.463-34.014 14.764-42.015 35.327-26.667 68.537 25.422 55.01 53.284 93.71 81.178 112.75 13.836 9.447 13.842 9.458 11.478 21.246-7.473 37.265 3.009 64.664 44.633 116.67 20.805 25.994 25 32.03 37.407 53.832 38.453 67.566 77.775 127.69 120.13 183.66 7.35 9.715 19.404 25.69 26.787 35.5 8.297 11.025 17.251 21.57 23.445 27.61 5.513 5.376 10.832 11 11.82 12.5 6.41 9.721-5.299 24.364-15.82 19.786zm-822.09-205.4c1.756-1.835 7.096-6.46 11.867-10.278 16.839-13.476 16.261-23.157-2.415-40.448-13.053-12.084-21.217-12.187-27.12-.34-4.761 9.553-3.042 12.317 7.032 11.3 13.659-1.376 16.545 13.553 4.105 21.24-6.662 4.118-8.319 15.37-3.629 24.64l3.148 6.222 1.91-4.5c1.051-2.475 3.347-6.001 5.103-7.836zm47.44-44.7c5.617-6.028 4.669-9.6-6.104-23.017-10.085-12.559-6.356-18.626 5.526-8.99 17.43 14.131 22.04 4.729 10.23-20.867-11.89-25.7-11.44-29.7 2.6-22.6 9.028 4.557 10.328 3.386 8.929-8.042-3.22-26.3-27.218-42.087-30.02-19.749-1.238 9.872-2.773 14.854-12.068 39.174-8.986 23.513-13.387 38.994-14.406 50.674l-.693 7.943h2.882c1.586 0 7.606 2.268 13.38 5.041 12.15 5.835 14.695 5.897 19.746.476zm56.126-53.43c6.222-24.811 18.292-39.71 57.276-70.7 12.291-9.77 25.757-21.008 29.923-24.971l7.576-7.206-4.576-.602c-7.957-1.046-42.017 1.094-63.576 3.995-18.676 2.514-64.571 12.345-66.729 14.295-.401.363 1.692 2.55 4.652 4.862 14.517 11.338 22.519 28.724 27.036 58.739 1.606 10.674 5.65 30.759 6.09 30.25.12-.137 1.167-4.036 2.327-8.663zm-129.67-94.734c3.023-1.522 7.789-8.914 7.789-12.081 0-3.158-2.954-6.083-9.15-9.059-6.467-3.107-29.303-21.655-37.008-30.06-12.328-13.447-16.724-23.885-17.766-42.185-.977-17.159-6.667-23.83-21.856-25.63-14.59-1.728-14.414 3.482 1.152 34.302 33.452 66.235 58.56 93.916 76.838 84.712zm281.77-27.421c13.155-2.134 22.32-8.474 29.457-20.375 5.342-8.908 4.796-9.218-6.31-3.575-10.688 5.43-11.287 5.643-10.622 3.766 3.169-8.948 5.107-43.197 3.006-53.114-3.117-14.712-63.476-77.598-69.365-72.269-1.154 1.044-3.578 1.633-6.725 1.634-12.255 0-18.372 9.106-18.452 27.458-.072 16.415-2.792 26.862-8.933 34.311-6.056 7.347-2.034 15.722 8.667 18.051a5746 5746 0 0 1 21.648 4.826l16.851 3.781-2.547 2.191c-2.51 2.16-10.288 4.38-15.34 4.38-8.518 0-18.001 6.48-14.747 10.076 6.24 6.896 26.806 13.113 47.77 14.442l10.839.687-2.698 2.816c-1.766 1.843-4.931 3.42-9.156 4.564-10.576 2.863-19.324 10.516-19.324 16.904 0 .97 39.519.493 45.98-.555zm-105.94 175.46c-5.187-16.794-.97-26.681 16.028-37.585 6.276-4.026 11.526-9.555 15.482-16.306 4.593-7.838 18.44-41.766 18.445-45.195.006-4.188.711-4.507 10.34-4.675 12.187-.213 15.384-2.126 32.165-19.253 16.688-17.031 34.508-28.706 38.192-25.023 3.372 3.372-27.954 41.515-64.175 78.142-35.163 35.557-48.141 50.799-58.555 68.775-5.413 9.342-5.383 9.338-7.922 1.12zm526.46-294.2c-46.792-6.753-81.362-38.7-115.88-107.09-3.664-7.26-2.845-6.622 4.5 3.5 60.56 83.465 128.82 111.99 200.38 83.752 14.846-5.86 50.415-26.084 56.403-32.072 1.01-1.01-3.485-4.448-6.57-5.027-2.907-.545-4.594.1-11.781 4.508-40.203 24.654-76.235 21.793-126.23-10.024-5.22-3.322-11.02-6.288-12.89-6.591-4.01-.651-4.52-1.228-6.892-7.795-7.307-20.236-21.078-31.873-58.118-49.112-25.991-12.096-40.956-22.634-33.996-23.94 14.785-2.774 28.813.831 57.76 14.844 31.446 15.223 39.44 17.708 56.976 17.708 11.609 0 12.142-.3 8.423-4.72-3.424-4.069-10.45-7.583-22.583-11.296-12.837-3.928-16.921-5.949-22.6-11.183-6.288-5.796-6.055-5.842 11.414-2.25 41.3 8.495 53.13 15.843 72.37 44.949 32.276 48.825 49.067 50.166 146.56 11.698 11.842-4.672 11.784-4.955 1.708 8.405-44.491 58.99-125.62 92.32-198.95 81.737zm-229.89-107.4c-7.227-7.986-13.008-19.823-20.442-41.854-9.735-28.853-24.651-53.985-32.048-54.001-.339 0-.482 7.424-.32 16.5.164 9.076-.07 16.501-.519 16.501-4.134 0-13.355-22.303-35.348-85.5-15.905-45.701-30.977-57.116-67.428-51.066-4.4.73-8.063 1.269-8.14 1.197s4.168-3.734 9.433-8.138c27.67-23.148 41.263-52.845 42.79-93.493.28-7.425.743-15.429 1.03-17.786l.52-4.286 11.85 11.352c15.471 14.823 20.072 17.313 35.752 19.354 29.185 3.798 33.167 13.954 15.838 40.402-21.03 32.097-21.595 47.717-3.258 90.019 14.211 32.782 55.802 138.05 57.267 144.94 4.007 18.848 1.3 25-6.977 15.854zm-352.05-87.861c-7.399-3.854-15.838-7.62-18.754-8.368l-5.302-1.36 5.5-.75c44.94-6.119 70.818-36.79 111.99-132.73l9.318-21.712 6.597-2.115c47.62-15.3 97.08-73.87 97.08-115 0-11.337-1.401-10.357 30.152-21.091a6047 6047 0 0 0 52.141-18.058c27.263-9.613 27.72-9.705 25.332-5.087-3.392 6.559-9.1 10.149-20.258 12.736-36.443 8.451-40.579 24.74-10.405 40.969 15.77 8.482 16.872 13.286 6.36 27.737-7.57 10.407-16.082 11.794-28.945 4.718-8.91-4.902-23.52-1.811-19.81 4.19 1.385 2.242-3.504.525-7.458-2.618-8.226-6.54-9.541-4.08-12.578 23.51-4.808 43.683-21.432 61.215-64.921 68.465-41.968 6.997-51.931 16.834-48.468 47.856 2.444 21.893-15.801 51.763-50.642 82.909-27.471 24.558-35.692 26.834-56.944 15.763zm532.88-89.464c-27.307-6.323-45.99-17.959-87.432-54.456-10.725-9.445-24.78-21.276-31.232-26.292-14.975-11.639-14.677-13.398 1.733-10.216 2.816.546 3.32.12 8.234-6.957 20.94-30.154 38.42-22.139 80.698 36.998 28.203 39.45 53.042 60.393 71.628 60.393 4.138 0 1.67 1.754-3.31 2.352-11.712 1.407-29.926.584-40.318-1.823zm-800.9-51.1a4097 4097 0 0 0-20-3.984c-80.94-15.9-200.07-56.91-220.19-75.73-29.923-27.99-39.573-109.23-27.853-234.49 2.13-22.755 5.478-61.826 6.47-75.489.472-6.494 1.083-12.034 1.359-12.31 2.048-2.048 2.58 68.91.931 124.12-5.12 171.41 4.511 182.58 227.72 264.13 45.004 16.442 45.137 16.5 31.565 13.737zm337.64-18.447c-2.947-.514-13.297-3.61-23-6.88-39.383-13.272-56.494-13.062-77.124.948-6.798 4.617-6.747 3.81.323-5.085 16.625-20.916 37.88-22.118 89.19-5.044 16.923 5.63 26.34 8.023 37.93 9.636 5.64.785 5.126 1.379-3.87 4.474-6.812 2.344-16.553 3.154-23.449 1.951zm-47.14-59.47c-19.459-2.419-35.346-6.402-70.33-17.634-12.007-3.855-29.782-9.255-39.5-11.999-27.661-7.813-42.015-16.093-51.306-29.596-3.667-5.33-3.443-5.625 5.833-7.696 16.91-3.775 26.355-1.776 41.803 8.847 80.192 55.149 238.61 31.198 217.08-32.82-16.23-48.3-52.09-98.4-74.61-104.25-16.95-4.4-30.62-11.69-55.96-29.85-11.389-8.162-16.6-11.205-24.288-14.179-19.793-7.658-22.544-15.465-9.796-27.802 4.938-4.779 4.926-4.64.613-6.962-6.476-3.487-7.36-8.248-4.583-24.685 3.78-22.4.32-28.9-15.42-28.9-3.042 0-5.518-.337-5.5-.75s.48-4.125 1.032-8.25c2.866-21.46 1.166-27.065-17.818-58.726-20.883-34.827-25.325-42.856-29.65-53.594-6.014-14.936-6.588-30.013-1.623-42.61 3.023-7.67 14.962-26.296 12.697-19.81-11.181 32.028 1.614 64.185 41.279 103.74 55.705 55.552 63.433 69.59 63.586 115.5.112 33.894 2.483 42.34 16.114 57.401 17.003 18.79 102.63 60.117 124.5 60.088 18.36-.024 32.895-8.504 44.842-26.162 15.56-22.999 25.409-24.858 39.267-7.411 14.087 17.735 10.077 28.483-13.86 37.148-33.327 12.064-83.27 60.13-79.214 76.237 1.495 5.938 7.72 12.335 14.32 14.713 17.565 6.33 20.917 7.903 24.526 11.512 5.129 5.129 6.64 11.673 5.054 21.89-2.879 18.559-9.049 24.589-32.638 31.904-5.542 1.718-11.926 4.472-14.22 6.133l-4.162 3.016-2.536-2.537c-7.79-7.79-18.442-8.061-32.716-.833-16.297 8.252-47.49 12.079-72.807 8.932zm461.5-34.297c43.848-42.269 105.15-63.915 191.11-67.482l6.107-.253-1.402 4.106c-2.952 8.65-5.313 9.748-22.599 10.514-51.812 2.294-95.82 15.002-156.21 45.107-9.9 4.935-17.55 8.538-17 8.008zm-691.28-29.79c-3.233-2.264-5.242-6.705-7.889-17.439-6.034-24.468-16.916-35.285-35.578-35.366-3.712-.016-6.75-.18-6.75-.364 0-5.25 4.175-8.571 13.493-10.732 10.973-2.545 11.765-3.93 4.31-7.538-17.676-8.555-24.438-26.007-18.798-48.519 4.337-17.31-3.563-38.496-17.58-47.146-11.18-6.9-13.582-10.084-19.362-25.664-5.625-15.163-10.65-21.543-18.29-23.22l-2.98-.655 3.544-3.648c7.473-7.693 6.97-12.25-2.78-25.145-7.76-10.264-8.18-9.828 10.503-10.904 21.54-1.24 23.493-3.542 23.137-27.263-.281-18.713 3.77-32.625 15.422-52.962 2.008-3.506 4.588-8.089 5.733-10.184 4.413-8.077 20.834-26.836 22.251-25.42.35.35 1.438 4.594 2.418 9.432 6.81 33.595 6.369 66.602-1.663 124.3-6.344 45.564-4.611 53 15.999 68.648 18.824 14.292 26.935 29.13 33.623 61.505 10.287 49.8 23.919 68.072 56.797 76.137l9.15 2.245-23.183 10.407c-45.988 20.643-55.562 23.677-61.529 19.498zm905.03-52.511c17.742-16.997 27.616-29.364 35.58-44.561 11.105-21.192 21.116-26.865 56.175-31.829 42.315-5.992 52.841-9.702 57.852-20.39l2.648-5.648-.206-26.262c-.287-36.732-2.655-48.83-16.49-84.238-13.234-33.873-15.786-40.904-18.149-50.02-3.18-12.266-5.9-28.653-5.483-33.036l.4-3.44 5.83 7c30.532 36.656 45.31 77.49 58.117 160.57 7.569 49.105-7.885 65.798-63.762 68.878-44.331 2.444-61.45 12.368-77.232 44.775-9.704 19.925-21.188 29.557-38.452 32.249-14.123 2.202-14.24 2.707 3.245-14.043zm-346.39-6.97c-4.44-2.34-6.81-5.49-6.81-9.03 0-2.568.843-3.875 10.724-16.64 2.645-3.417 9.898-14.697 16.118-25.068 28.19-47 44.03-58.22 82.16-58.22 25.656 0 48.584-28.507 48.175-59.897-.148-11.372.141-11.973 8.035-16.689 30.507-18.226 53.454-49.356 73.282-99.414 4.774-12.052 15.954-35.579 20.92-44.021 2.096-3.564 4.66-8.933 5.698-11.932 3.47-10.023 7.864-12.159 16.46-7.998 8.086 3.915 8.904 8.183 2.958 15.44l-3.772 4.603 2.068 5.704c6.052 16.697 5.403 33.606-2.186 56.95a9689 9689 0 0 0-8.156 25.254c-11.907 37.05-25.498 52.335-52.516 59.059-17.7 4.43-24.9 12.16-24.9 26.82v5.145l3.75-.58c8.047-1.248 31.767-4.119 32.072-3.882.994.772-5.998 9.543-14.788 18.552-15.666 16.054-18.38 24.683-12.438 39.536 3.944 9.86-.772 12.635-25.296 14.885-28.21 2.588-26.99 1.806-62.12 39.845l-6.319 6.842-6.68-.985c-14.672-2.164-25.988 1.91-50.003 18.003-7.878 5.279-17.327 10.796-21 12.26-3.673 1.466-8.77 3.752-11.325 5.082-5.564 2.895-9.1 2.991-14.04.382zm-87.9-113.27c-6.931-1.968-12.572-5.722-16.696-11.11-4.017-5.249-7.423-7.444-16.7-10.763-3.293-1.178-7.341-3.496-8.995-5.15l-3.008-3.007 10.245-3.415c13.981-4.66 13.775-7.056-.846-9.82-13.373-2.529-14.473-5.236-5.334-13.126l5.311-4.586-2.403-3.151c-1.322-1.734-4.422-8.036-6.89-14.005-6.526-15.795-11.78-20.535-22.81-20.585-11.964-.054-17.471-3.344-16.422-9.81 1.514-9.328 6.128-10.304 19.74-4.175 37.52 16.894 59.265 11.494 89.4-22.203 4.866-5.44 5.322-5.69 17-9.28 75.549-23.228 108.97-109.61 62.043-160.33-2.016-2.179-4.244-4.753-4.952-5.722-3.353-4.585-8.497 6.242-9.733 20.485-3.03 34.93-12.807 58.6-35.377 85.654-48.181 57.752-113.79 79.155-150.03 48.941-19.53-16.27-30.7-17.14-51.96-4.03-8.035 4.955-13.337 2.52-19.587-9-1.79-3.3-5.902-10.725-9.136-16.5-51.69-92.304-55.172-171.87-10.146-231.87.707-.942 22.177 19.107 26.904 25.12 13.357 16.998 10.985 31.03-8.87 52.47-26.523 28.64-26.016 52.115 1.835 84.96 40.081 47.268 79.605 78.715 119.33 94.944 17.836 7.286 22.153 6.266 36.556-8.641 4.887-5.058 10.337-9.802 12.111-10.544l3.227-1.348-1.829-5.295c-3.37-9.758-1.607-16.554 9.158-35.294 14.764-25.703 14.708-35.034-.3-49.735-8.924-8.742-9.057-9.449-2.834-15.072 5.465-4.937 11.268-8.12 24.226-13.287 51.076-20.368 71.475-60.687 55.718-110.13-14.5-45.48-85.88-78.32-138.87-63.91-57.18 15.557-89.83 17.488-117.83 6.97-9.82-3.688-23.288-9.556-22.877-9.967.621-.621 25.462-3.254 45.71-4.845 10.725-.842 28.05-2.2 38.5-3.017 35.331-2.763 52.365-5.473 75.5-12.013 31.402-8.877 33.227-9.036 40.898-3.574 1.435 1.022 6.658 3.99 11.605 6.597 54.18 28.538 76.038 51.553 80.522 84.785 2.421 17.943 5.291 24.587 20.684 47.879 15.818 23.937 18.237 31.25 20.213 61.137 3.43 51.846-8.246 90.46-48.886 161.68-29.7 52.047-39.569 75.824-45.005 108.44-3.666 21.993-25.346 34.72-48.124 28.253zm92.09-15.38c0-1.958 11.075-20.267 16.923-27.976a9752 9752 0 0 1 13.951-18.334c16.89-22.133 21.113-39.165 15.094-60.872-2.255-8.132-2.175-8.299 5.846-12.13 26.077-12.456 45.37-46.168 49.214-85.998.61-6.325 1.977-15.775 3.037-21 8.443-41.628 7.65-63.999-3.01-84.895-2.87-5.623-2.184-6.019 2.393-1.382 15.881 16.09 23.536 39.063 26.082 78.277 1.802 27.75 5.487 47.778 11.015 59.871 3.219 7.04 3.785 5.063-7.178 25.058-40.91 74.53-69.35 109.63-111.4 137.42-14.695 9.71-22 13.678-22 11.952zm-301.12-30.63c-17.886-5.066-23.385-13.099-51.05-74.582l-2.879-6.398 11.775.564c40.245 1.93 62.326 19.507 71.707 57.08 4.472 17.911-9.566 28.996-29.553 23.335zm-36.93-133.58c-42.733-28.08-48.462-86.323-13.302-135.22 5.733-7.972 13.601-16.328 11.455-12.164-23.73 46.028-21.291 104.87 6.011 145.03 5.838 8.587 5.561 8.743-4.164 2.352zm52.913.75c-31.179-3.01-45.938-16.503-51.87-47.419-1.154-6.013-2.991-15.603-4.083-21.31-1.093-5.709-2.836-12.796-3.874-15.75-5.228-14.874 12.57 6.475 30.917 37.084 13.483 22.495 17.744 28.371 28.239 38.944 4.86 4.896 8.716 8.966 8.57 9.045-.147.079-3.701-.188-7.9-.594zm-323.14-74.43c-.12-.1-5.84-.49-12.72-.86-6.875-.376-17.675-1.098-24-1.604-6.325-.507-13.075-.935-15-.953-3.317-.031-3.125-.215 3.681-3.527 20.92-10.179 28.258-26.465 22.354-49.611-2.805-10.999-2.031-14.165 6.016-24.607 7.972-10.344 63.341-93.463 79.441-119.26 15.995-25.624 19.762-30.956 38.503-54.5 25.422-31.938 36.782-50.103 44.399-71 13.18-36.16 31.9-49.073 79.6-54.886 38.133-4.648 35.601-4.95 27.214 3.256-6.993 6.842-13.222 9.623-25.067 11.192-57.435 7.606-70.898 24.147-62.053 76.238 3.965 23.35-1.211 32.669-18.163 32.695-5.25.008-13.94 2.826-17.869 5.795-7.275 5.498-7.61 5.995-40.875 60.71-32.017 52.663-46.999 74.691-72.095 106-23.436 29.239-24.705 38.947-9.601 73.482 2.48 5.669 4.508 10.71 4.508 11.203 0 .716-7.45.93-8.28.238zm-132.22-1.07c-1.65-.263-10.062-2.23-18.694-4.37-8.632-2.139-19.094-4.197-23.25-4.574-8.586-.778-8.557-.74-4.702-6.009 7.465-10.203 12.563-10.51 26.299-1.586 12.014 7.806 16.544 8.946 22.763 5.73 3.741-1.935 3.774-.848-.321-10.782-34.594-83.931-11.956-152.24 73.804-222.7 1.044-.858-3.68 4.07-10.5 10.952-66.951 67.562-80.56 139.85-41.311 219.42 2.965 6.01 5.283 11.006 5.151 11.102-3.02 2.197-21.804 4.01-29.239 2.823zm506.15-16.379c-21.351-6.4-24.728-47.963-5.45-67.084 19.509-19.35 62.935-33.365 85.059-27.45 21.758 5.817 50.604 32.83 48.28 45.214-1 5.326-20.94 22.063-22.89 19.212-.138-.2-2.434-4.64-5.103-9.865-11.981-23.45-17.8-28.66-30.988-27.75-7.73.532-27.86 7.333-27.243 9.203 1.09 3.31 8.652 6.61 20.517 8.953 16.993 3.355 21.373 6.568 23.644 17.344l.684 3.25-6.329-.015c-16.966-.04-31.481-6.849-50.422-23.656l-7.093-6.293-2.032 2.232c-5.077 5.575-5.278 8.054-1.579 19.415 2.388 7.331 2.56 8.702 1.466 11.725-.68 1.883-1.643 6.975-2.138 11.317-1.623 14.234-6.31 17.867-18.383 14.249zm530.95-2.22c.406-.687 3.442-5.296 6.746-10.24 13.111-19.618 13.062-25.9-.328-41.997-37.738-45.365-53.253-88.66-47.08-131.37 2.343-16.2 11.95-3.085 14.545 19.856 5.547 49.043 17.872 78.71 45.49 109.5 14.01 15.62 13.806 30.258-.607 43.43-7.122 6.51-20.916 14.462-18.766 10.82zm-25.6-21.3c-5.225-3.61-17.825-11.557-28-17.66-33.68-20.2-40.039-24.933-59.318-44.155-26.491-26.41-44.871-32.404-74.182-24.186-23.79 6.67-27.668 4.047-38.368-25.953-2.158-6.05-7.297-18.2-11.42-27-11.339-24.202-16.698-43.699-16.708-60.782-.01-16.173-3.61-18.648-34.504-23.708-90.927-14.895-226.71-10.944-288 8.38-17.122 5.399-19.631 4.89-29.818-6.036-13.622-14.61-23.972-19.072-41.917-18.068-10.451.585-14.191 1.415-42.067 9.343-30.744 8.743-33.807-6.063-5.842-28.242 28.728-22.784 59.694-21.608 91.093 3.46 33.392 26.657 49.757 27.43 115.95 5.48 77.75-25.78 92.29-27.07 127.61-11.35 35.64 15.86 62.34 22.03 95.4 22.03 21.116 0 26.09 3.698 26.102 19.398.012 18.005 3.043 19.816 13.54 8.087 11.894-13.288 20.81-8.843 11.12 5.544-5.884 8.738-4.556 14.037 5.529 22.056 14.068 11.185 25.548 12.688 49.947 6.536 4.872-1.228 8.859-2.147 8.859-2.04 0 .105-2.67 2.962-5.933 6.35-17.416 18.076-14.283 30.486 10.854 42.982 21.055 10.467 34.406 22.64 58.038 52.92 17.8 22.806 18.357 23.347 36.041 35.041 21.548 14.25 30.023 23.93 34.484 39.381 2.708 9.38 2.127 9.53-8.483 2.199zm-694.31-8.7c-10.803-48.56 24.552-114.62 87.581-163.65 2.519-1.96-1.981 6.836-14.113 27.586-33.656 57.563-60.746 112.47-69.593 141.06-1.187 3.836-2.201 2.528-3.876-5zm57.751-43.32c-2.056-13.71 3.508-26.428 20.947-47.876 14.56-17.907 18.583-24.835 20.602-35.482 1.432-7.553 1.605-7.36 2.946 3.296 4.003 31.807-12.357 64.791-41.123 82.906l-2.691 1.695zm290.83-1.354c-5.97-3.29-10.099-6.398-22.648-17.042-4.886-4.144-9.98-8.44-11.322-9.547l-2.437-2.013 4.321.3c70.862 4.926 67.298 4.128 60.877 13.644-12.162 18.024-17.634 20.81-28.792 14.658zM699 344.622c-4.724-3.626-4.437-11.413.754-20.49 3.624-6.337 7.983-8.568 27.833-14.246a5984 5984 0 0 0 36-10.444c68.577-20.176 143.99 2.391 124.94 37.388-6.186 11.365-11.165 11.78-24.443 2.037-9.776-7.172-31.614-13.122-48.165-13.122-12.023 0-20.378 2.897-33.768 11.706-10.787 7.097-15.13 7.88-38.567 6.95-23.737-.941-30.585-.846-35.403.492-4.688 1.303-7.232 1.228-9.183-.271zm428.69-109.26c-9.9-11.62-12.9-19.1-15-37.46-4.5-39.44-20.8-64.48-52.2-80.53-10.3-5.25-18-7.82-56.9-18.989C930.5 77.398 900.35 64.974 859.3 38.93c-23.45-14.879-34.66-15.47-76.32-4.023-10.11 2.78-32.57 7.722-49.89 10.983-34.837 6.558-45.676 9.154-60.5 14.488-17.013 6.124-14.976 6.21-17.073-.717l-1.825-6.029 2.949-2.449c7.76-6.443 11.468-8.513 20.352-11.36 18.732-6.005 44.832-11.197 77.808-15.478 27.952-3.629 45.91-6.81 59.789-10.592 17.819-4.855 29.196-5.071 41.697-.794 14.3 4.893 17.41 6.752 55.272 33.023 28.818 19.997 56.495 30.621 93.53 35.902 78.54 11.2 119.16 58.28 128.02 148.39 1.314 13.341 1.448 13.215-5.447 5.087zm-852-66.96c8.57-38.016 30.751-52.693 91.4-60.475 12.925-1.658 26.088-3.633 29.25-4.388 7.97-1.904 7.381-1.417-5.867 4.856-27.107 12.835-38.56 16.24-58.883 17.5-24.847 1.543-30.1 5.053-47.622 31.826-5.512 8.422-8.694 12.528-8.278 10.681z"/></svg>