<svg xmlns="http://www.w3.org/2000/svg" width="1528pt" height="1932" viewBox="0 0 1528 1449"><path d="M959.44 75.955c-4.95-.013-9.9.286-14.82.908-41.5 4.888-73.24 36.247-96.57 68.607-5.9 9.22-17.22.63-25.06-.85-46.71-14.82-105.17-18.56-143.3 17.58-31.97 31-41.3 76.4-48.47 118.54-36.3 23.52-74.63 51.34-88.26 94.7-17.21 60.35 9.9 129.84 60.79 165.81 26.55 20.37 59.11 30.15 90.84 39.15 51.4 15.48 96.23 53.35 116.42 103.57 20.53 47.69 20.3 104.07 51.88 146.88 19.68 19.66 40.33-9.93 41.36-29.09 7.49-52.39 3.24-106.95-10.46-158.05-5.48-20.36-17-40.46-12.63-62.09 1.41-7.78 12.3-12.31 17.9-5.87 18.66 22.97 8.03 57.91 27.69 80.41 7.45 4.21 16.94-1.16 16.95-9.88 2.14-49.42-25.18-96.06-17.29-145.81 1.49-9.7 4.46-22.43 15.38-25.48 10.87-1.58 16.26 9.75 18.78 18.36 12.49 37.85 3.03 78.39 8.88 117.03 1.4 11.31 16.11 20.48 24.65 10.15 17.8-23.69 2.05-57.62 16.4-82.63 4.9-10.42 20.4-6.96 21.7 3.99 4.7 37.33-19.8 71.76-14.1 109.23 1.8 6.49 9.7 9.34 15.8 6.88 18.1-6.09 29.4-22.66 41.3-36.57 27.9-31.83 60.9-58.66 94.4-84.29 38-29.28 55.1-78.39 56.4-124.99 1.8-38.59.4-81.57-25.1-113.03-25.4-30.98-67.7-40.05-105.9-39.58-7.4.03-8.4-9.43-7.6-14.85.3-44.34-6.4-92.28-36-127.29-22.9-26.042-57.35-41.356-91.96-41.445M411.5 482.17c-5.58-.06-11.25.26-17 .99-54.64 4.11-98.11 44.76-125.51 89.46-3.49 4.66-7.33 12.6-14.35 8.94-33.7-10.66-69.72-15.76-104.77-9.12-42.01 10.08-70.623 49.27-82.185 89-10 37.91-1.9 78.31 13.713 113.55 2.437 4.35-.088 9.2-4.6 10.7-26.138 11-49.162 31.01-59.35 58.02C-6.189 909.66 15.536 996.5 81.136 1030c5.925 4.7 21.234 7 16.273 17.3-13.325 33.1-20.012 76.3 4.461 105.8 40.7 49.9 114.28 46.1 167.94 21.8 74.37-49.9 148.23-105.5 234.7-132.8 60.73-13.7 124.36-7.2 184.84 5 12.02.7 24.42 1.4 36.33-.7 16.85-5 11.57-28.2.02-36-23.54-17.87-52.14-27.24-79.36-37.93-8.54-2.88-15.13-16.98-4.39-20.82 21.79-4.21 42.88 5.81 62.67 13.71 12.61 4.72 16.08-12.35 10.56-20.24-17.55-30.18-50.47-46.31-76.33-68.08-11.33-10.74 4.29-28.68 16.55-21.4 28.45 14.93 44.68 44 66.18 66.54 5.89 8.68 23.48 11.34 25.76-1.48-1.92-31.79-37.18-50.2-39.72-81.84-2.84-11.01 11.98-18.92 19.43-9.86 30.75 32.39 32.45 83.68 66.67 113.56 9.01 8.95 26.39 5.63 26.44-9.13 6.51-41.13-.81-83.07-5.82-124.05-8.18-60.33-35.07-123.31-89.27-155.74-42.08-24.75-91.35-42.53-140.79-34.23-17.71 6.64-18.21-15.91-25.62-25.61-27.36-56.96-81.26-110.91-147.16-111.63m1074.7 92.98c-4.7.02-9.5.19-14.3.5-67.5 2.39-133.7 26.92-188.1 66.92-53.1 38.28-91.2 92.56-127.9 145.79-9.5 15.04-20.7 29.88-25.1 47.33-3.2 7.43 4.4 16.05 12.1 12.85 27.3-10.25 38.1-42.86 65.2-53.43 7.4-2.88 12 5.06 8.7 11.09-16.7 33.72-54.9 50.89-70.8 85.1-5.2 11.08 5.7 22.95 17.2 19.73 27.6-5.2 48.1-26.57 69.4-43.47 35.4-28.1 80.1-49.6 126.4-45.66 8.7.3 19.9 7.62 14.5 17.55-13 14.06-33.7 14.98-51.3 19.08-53.8 6.63-104 33.38-142.2 71.43-9.4 5.89-8.8 24.74 5.4 21.29 43.2-2.2 79.1-40.34 124.2-32.49 7.9 1.51 19.3 12.68 9.7 19.3-19.4 11.19-43 9.15-63.9 16.1-42.9 13.05-81.5 39.33-112 71.84-5.8 6.1-9.5 19.8 1.2 22.5 33.7 4.1 55.6-26.2 84.6-36.7 45.2-15.59 94-14.11 141-10.7 74.9 4.7 154.6 22 210.1 76.1 33.9 37.5 74.1 76.1 126.2 84 42.5-.9 89.9-21.2 107.1-62.6 15.9-32.9 5-70.4 5.2-104.39 33.1-17 71-38.82 79.4-78.65 10.8-55.91-21-107.8-52.4-151.12-13.7-13.39-6.6-33.79-8.3-50.53.4-38.3-10.9-81.95-45.1-103.8-42.8-26.43-96.5-15.28-142.2-3.77-10.7 2.5-21.6 10-32.4 3.73-40.3-21.66-85.7-35.09-131.6-34.92m-106.9 467.05c-13.4-.1-26.7.3-39.9 1-64.4.3-137.8 11.6-176.8 69.4-16.6 14.2-11.4 49.3 15.3 40.5 42.4-12.4 90.6-16.3 131.3 3.7 9.3 3.4 14.4 19.8 3.3 23.6-24.7 4.2-48.9-14.9-73.6-5.6-8.3 1.5-9.7 12.7-3.7 17.5 24.7 21.6 60.5 25.1 84.1 48.4 3.7 3.7 5.1 12.8-1.4 13.9-24.2 2.3-42.8-18.8-66.2-20.4-12.1 2.1-3.8 17.7 2.4 21.8 12.5 18.6 44.4 27.2 43.7 52.6-14.3 16.2-35.7-2.3-47.5-12.7-30.4-34.8-69.2-64.6-114.9-75.3-10.4-2.4-30-1.8-27.8 13.2 6.3 36.1 43 55.9 59.1 87 26.8 54.6 24.9 117.9 19.8 177-4.3 80.6 7.7 172.7 70.9 229.7 32.8 29.5 82.1 19.8 115.5-3.3 9.2-3.5 17.7-18.4 28.4-11.9 23.9 27.4 50.3 53.6 82.3 71.6 25.2 14.5 58.1 19.8 83.9 3.5 31.3-20 47.9-55.4 60.9-88.9 1.9-6.4 5.7-15.9 14.5-11.6 39.5 8.4 86.9 4.7 114.9-27.8 40.9-47.3 50.3-122.8 12.9-174.8-5.2-9.3-19.5-18.4-12-30.3 20.5-39.1 35.7-87.1 17.1-129.8-20.1-43.3-67.8-62.9-110.8-75.5-9.6-3.9-25-1.7-28.6-14-25.5-61.7-62.6-122.1-120.2-158.5-40.5-27-88.9-33.8-136.9-34m-800.13 33.2c-11.61 0-23.21.6-34.66 1.6-58.47 6.3-123.89 17-163.62 65.1-43.44 50-46.39 120-45.57 182.7-32.21 29.2-70.58 58.4-82.04 102.5-11.08 47.8 34.91 79.6 72.9 95.3 7.71 4.8 26.46 5.4 21.72 19-9.16 41.1-16.85 92.9 15.81 125.9 39.72 32.4 95.57 20.1 141.59 10.6 8.21-1.2 10.01 9.3 13.51 14.4 23.61 47.5 60.64 94.9 114.83 107.5 49.61 10.6 99.74-8 141.7-33.6 12.37-9.5 25.24 3.4 37.02 7.5 45.15 20.5 103.65 37.1 147.33 4.5 33.79-27.4 45.21-72.6 50.71-113.9 1-15.8 20.1-14.8 30.9-20.7 51.2-18.4 94.3-62.2 103.1-117 11-93.1-19.3-201.5-104.6-251.6-32.4-17.2-66.74-39.6-105-35.9-21.37 4.5-21.76 32.4-21.23 49.4-3.32 52.1 24.47 100 23.09 151.5 2.11 16.3-21.22 31.6-30.35 14.6-16.99-41.3-.72-90.1-21.28-130.9-5.08-14.7-30.14-18-36.34-2.5-15.78 26.2-7.84 60.1-23.78 86-7.87 13.1-25.57 1.2-27.02-10.5-5.84-38.4 22.01-72.7 20.17-110.8-.56-10.3-12.8-11.9-20.8-9.2-39.41 8.9-74.09 32.3-102.35 60.6-11 14-40.49 3.7-30.29-15.1 25.59-31.5 70.78-37.5 97.53-67.9 5.95-5.6 4.83-17-3.72-19.5-21.54-7-42.58 8.5-64 4.7-11.84-3.9-6.82-21.1.78-27 26.44-18.7 62.05 6.5 88.51-11.4 11.07-8.7 5.17-24.8-3.04-33.3-23.79-25.5-52.99-45.3-82.28-63.9-36.05-21.3-77.75-28.6-119.23-28.7" style="fill:#E84545;fill-opacity:1" transform="scale(.8)"/><path d="M1325.848 10.527c-3.12.04-6.24.378-9.28 1.034-19.28 3.53-30.88 21.65-39.92 37.41-2.4 6.43-8.88 1.11-11.92-1.69-14.16-12.98-34-24.61-53.76-17.19-25.76 12.45-42 47.61-27.12 73.96 3.12 6.912 10.64 11.64 12.88 18.808-5.28 4.6-13.52 3.696-19.36 7.728-23.2 12.48-26.64 44.872-15.6 66.616 8.8 16.896 28.16 22.488 44.8 28.216 3.28 8.608-1.76 18.24-5.12 26.304-9.04 22.92-48.16 29.344-59.44 4.896-2-13.088-.16-29.232-13.04-37.576-21.2-18.872-61.04-.68-56.24 28.672-1.52 26.184 29.84 36.296 50.64 28.92 34.16-1.864 39.76 53.528 9.12 63.088-17.12 8.408-53.76 7.224-49.12-19.752-.4-17.688-17.84-32.272-35.36-29.912-25.76-2.096-41.44 30.032-29.36 51.056 9.28 18.608 33.92 21.536 50.88 12.304 12.08-.056 25.36 17.312 15.28 27.632-21.36 23.888-50.96 37.968-76.96 56.032-118.217 75.605-215.061 181.412-287.944 288.064-20.816 31.84-40.584 64.864-52.976 101.024-13.664 34.48-14.76 75.52 4.96 107.84 24.944 50 104.632 56.24 137.64 11.76 25.68-35.68 30.8-81.76 28.16-124.48-5.04-58.064 16.8-113.832 40.88-165.512 51.12-111.24 152.64-187.68 253.2-251.736 14.8-11.12 32.56 1.2 47.04 7.016 16.32 5.192 17.92 25.512 32.96 32.12 10.32 4.304 22.8 4.44 33.12-.056 23.44-11.04 23.2-49.704.4-61.392-16.72-8.696-38.16-3.208-48.56 12.456-11.92 1.856-24.64-3.856-34-11.368-6.88-10.808-.48-24.2 7.36-32.536 17.28-17.648 47.68-23.104 68.08-7.544 15.2 6.616 15.04 27.304 30.64 33.36 19.04 11.208 48 .36 50.64-22.696 5.44-22.984-16-47.576-39.84-42.184-14-1.136-19.84 17.736-33.84 14.12-12.64-1.256-27.44-8.472-28.96-22.44-.96-24.768 20.72-44.08 40-55.76 12.88 10.704 24.16 26.952 42.4 29.776 36.8 5.344 82.4-26.44 74.88-66.904.32-4.512-5.6-12.76 1.6-14.376 14.72-1.36 31.28-2.088 42.48-13.216 15.52-16.528 16.08-43.448 6.32-63.032-11.6-18.96-35.52-20.592-55.28-22.744.72-16.412 7.6-32.542 3.52-49.172-2.4-22.811-25.12-37.216-46.88-36.944m-32.96 94.172c18.96.584 36 18.776 33.92 38.16-.32 25.344-33.84 41.912-54 26.28-26.32-15.064-18.08-58.592 11.84-63.568 2.72-.68 5.52-.96 8.24-.872m-260.063 516.826c-687.318 554.377-343.66 277.189 0 0" style="fill:#D4993D;fill-opacity:1"/></svg>